<svg width="60" height="61" viewBox="0 0 60 61" fill="none" xmlns="http://www.w3.org/2000/svg">
<path d="M44.0624 52.2159H12.1874L10.3124 23.3741C10.2994 23.1751 10.3273 22.9756 10.3943 22.7881C10.4613 22.6007 10.5659 22.4292 10.7015 22.2847C10.8372 22.1402 11.0009 22.0258 11.1824 21.9486C11.364 21.8713 11.5593 21.8331 11.7562 21.8361H18.7499C19.073 21.8346 19.392 21.9094 19.6817 22.0544C19.9713 22.1994 20.2236 22.4107 20.4187 22.6715L22.7062 25.6336H44.0624V29.431" stroke="#256DF6" stroke-width="2" stroke-linecap="round" stroke-linejoin="round"/>
<path d="M49.3125 39.3045L50.8875 33.2285H17.3437L12.1875 52.2159H43.8937C44.4812 52.2143 45.0517 52.0161 45.5163 51.6521C45.9809 51.2881 46.3136 50.7787 46.4625 50.2032L47.8875 44.7348" stroke="#256DF6" stroke-width="2" stroke-linecap="round" stroke-linejoin="round"/>
<path d="M30.9375 46.5183C31.4362 46.0174 32.1101 45.7363 32.8125 45.7363C33.5149 45.7363 34.1888 46.0174 34.6875 46.5183V46.5183" stroke="#256DF6" stroke-width="2" stroke-linecap="round" stroke-linejoin="round"/>
<path d="M25.3125 40.8223H27.1875" stroke="#256DF6" stroke-width="2" stroke-linecap="round" stroke-linejoin="round"/>
<path d="M38.4375 40.8223H40.3125" stroke="#256DF6" stroke-width="2" stroke-linecap="round" stroke-linejoin="round"/>
<path d="M38.6625 6.85352C34.2188 7.59402 30.9375 10.1953 30.9375 13.2902C30.967 14.4933 31.4344 15.6428 32.25 16.5181L30.9375 21.8345L36.3 19.1193C37.8941 19.6667 39.5668 19.9426 41.25 19.9358C46.875 19.9358 51.5625 16.9548 51.5625 13.2902C51.5625 10.2523 48.3937 7.68896 44.0625 6.89149" stroke="#256DF6" stroke-width="2" stroke-linecap="round" stroke-linejoin="round"/>
<path d="M39.8438 11.8672L42.6562 14.7153" stroke="#256DF6" stroke-width="2" stroke-linecap="round" stroke-linejoin="round"/>
<path d="M42.6562 11.8672L39.8438 14.7153" stroke="#256DF6" stroke-width="2" stroke-linecap="round" stroke-linejoin="round"/>
</svg>
