<svg width="300" height="95" viewBox="0 0 300 95" fill="none" xmlns="http://www.w3.org/2000/svg">
<path fill-rule="evenodd" clip-rule="evenodd" d="M40.0918 38.7528L31.0337 50.2941H40.0918V38.7528ZM70.5066 50.2941V3.47396e-07H70.5062H40.0918H40.0914L0 51.0827V51.1712V81.0294H6.91163L40.0918 81.0294V95H70.5066V81.0294H84.3312V50.2941H70.5066Z" fill="#256DF6"/>
<path fill-rule="evenodd" clip-rule="evenodd" d="M174.191 30.7353V4.05312e-06L89.8595 0L89.8595 19.5588H89.8594V75.4412H89.8595L89.8595 95H174.191V64.2647H174.191V30.7353H174.191ZM146.08 30.7353H117.97V64.2647H146.08V30.7353Z" fill="#256DF6"/>
<path fill-rule="evenodd" clip-rule="evenodd" d="M219.818 38.7528L210.76 50.2941H219.818V38.7528ZM250.233 50.2941V4.76837e-07H250.233H219.818H219.818L179.727 51.0827V51.1712V81.0294H186.638L219.818 81.0294V95H250.233V81.0294H264.058V50.2941H250.233Z" fill="#256DF6"/>
<path fill-rule="evenodd" clip-rule="evenodd" d="M300 64.2647L300 4.05312e-06H269.585L269.585 64.2647H300ZM299.999 72.6471H269.584V95H299.999V72.6471Z" fill="#256DF6"/>
</svg>
