<svg width="45" height="35" viewBox="0 0 45 35" fill="none" xmlns="http://www.w3.org/2000/svg">
<path d="M22.5001 25C18.3638 25 15.0001 21.6362 15.0001 17.5C15.0001 13.3637 18.3638 10 22.5001 10C26.6363 10 30.0001 13.3637 30.0001 17.5C30.0001 21.6362 26.6363 25 22.5001 25ZM22.5001 13.75C20.432 13.75 18.7501 15.4319 18.7501 17.5C18.7501 19.5681 20.432 21.25 22.5001 21.25C24.5682 21.25 26.2501 19.5681 26.2501 17.5C26.2501 15.4319 24.5682 13.75 22.5001 13.75ZM9.37508 8.125C8.34008 8.125 7.50008 8.965 7.50008 10C7.50008 11.035 8.34008 11.875 9.37508 11.875C10.4101 11.875 11.2501 11.035 11.2501 10C11.2501 8.965 10.4101 8.125 9.37508 8.125ZM33.7501 13.75C33.7501 14.785 34.5901 15.625 35.6251 15.625C36.6601 15.625 37.5001 14.785 37.5001 13.75C37.5001 12.715 36.6601 11.875 35.6251 11.875C34.5901 11.875 33.7501 12.715 33.7501 13.75ZM9.37508 19.375C8.34008 19.375 7.50008 20.215 7.50008 21.25C7.50008 22.285 8.34008 23.125 9.37508 23.125C10.4101 23.125 11.2501 22.285 11.2501 21.25C11.2501 20.215 10.4101 19.375 9.37508 19.375ZM33.7501 25C33.7501 26.035 34.5901 26.875 35.6251 26.875C36.6601 26.875 37.5001 26.035 37.5001 25C37.5001 23.965 36.6601 23.125 35.6251 23.125C34.5901 23.125 33.7501 23.965 33.7501 25ZM31.8732 34.375C28.8095 34.375 26.0645 33.6269 23.4113 32.9031C20.8838 32.2131 18.4988 31.5625 15.9376 31.5625C12.992 31.5625 11.1338 31.7519 9.52695 32.2169C7.2657 32.8675 4.8882 32.4287 3.00195 31.0094C1.09508 29.575 0.00195312 27.385 0.00195312 25V10.8475C0.00195312 6.97937 2.43758 3.4525 6.06383 2.07062C8.5782 1.11062 10.9557 0.625 13.1288 0.625C16.1926 0.625 18.9357 1.37313 21.5907 2.09688C24.1182 2.78688 26.5032 3.4375 29.0645 3.4375C32.0082 3.4375 33.8682 3.24813 35.4751 2.78312C37.7401 2.1325 40.1176 2.57125 42.002 3.99063C43.9088 5.425 45.002 7.615 45.002 10V24.1525C45.002 28.0206 42.5645 31.5475 38.9382 32.9294C36.4238 33.8894 34.0482 34.375 31.8732 34.375ZM15.9376 27.8125C19.0013 27.8125 21.7445 28.5606 24.3995 29.2844C26.927 29.9744 29.312 30.625 31.8732 30.625C33.587 30.625 35.5145 30.2219 37.6032 29.425C39.8213 28.5813 41.252 26.5113 41.252 24.1525V10C41.252 8.80562 40.7026 7.70687 39.7463 6.98875C38.8107 6.28562 37.6351 6.06437 36.512 6.38688C34.5413 6.955 32.3832 7.1875 29.0607 7.1875C25.997 7.1875 23.2538 6.43938 20.5988 5.71563C18.0713 5.02563 15.6863 4.375 13.1251 4.375C11.4095 4.375 9.48383 4.77812 7.39508 5.575C5.17695 6.41875 3.74633 8.48875 3.74633 10.8475V25C3.74633 26.1944 4.2957 27.2931 5.25195 28.0113C6.18758 28.7144 7.3632 28.9356 8.48445 28.6113C10.4551 28.0431 12.6151 27.8106 15.9357 27.8106L15.9376 27.8125Z" fill="#256DF6"/>
</svg>
