<svg width="45" height="45" viewBox="0 0 45 45" fill="none" xmlns="http://www.w3.org/2000/svg">
<path d="M27.3752 39.9369C26.8127 40.3607 26.2146 40.8069 25.7064 41.2494H30.0002C30.4975 41.2494 30.9744 41.447 31.326 41.7986C31.6776 42.1502 31.8752 42.6271 31.8752 43.1244C31.8752 43.6217 31.6776 44.0986 31.326 44.4503C30.9744 44.8019 30.4975 44.9994 30.0002 44.9994H22.5002C22.0029 44.9994 21.526 44.8019 21.1744 44.4503C20.8227 44.0986 20.6252 43.6217 20.6252 43.1244C20.6252 40.3119 23.0158 38.5194 25.1252 36.9369C26.5314 35.8832 28.1252 34.6869 28.1252 33.7494C28.1252 33.2521 27.9276 32.7752 27.576 32.4236C27.2244 32.072 26.7475 31.8744 26.2502 31.8744C25.7529 31.8744 25.276 32.072 24.9244 32.4236C24.5727 32.7752 24.3752 33.2521 24.3752 33.7494C24.3752 34.2467 24.1776 34.7236 23.826 35.0752C23.4744 35.4269 22.9975 35.6244 22.5002 35.6244C22.0029 35.6244 21.526 35.4269 21.1744 35.0752C20.8227 34.7236 20.6252 34.2467 20.6252 33.7494C20.6252 32.2576 21.2178 30.8268 22.2727 29.7719C23.3276 28.7171 24.7583 28.1244 26.2502 28.1244C27.742 28.1244 29.1728 28.7171 30.2277 29.7719C31.2825 30.8268 31.8752 32.2576 31.8752 33.7494C31.8752 36.5619 29.4846 38.3544 27.3752 39.9369ZM43.1252 28.1244C42.6279 28.1244 42.151 28.322 41.7994 28.6736C41.4477 29.0252 41.2502 29.5021 41.2502 29.9994V35.6244H39.3752C38.8779 35.6244 38.401 35.4269 38.0494 35.0752C37.6977 34.7236 37.5002 34.2467 37.5002 33.7494V29.9994C37.5002 29.5021 37.3026 29.0252 36.951 28.6736C36.5994 28.322 36.1225 28.1244 35.6252 28.1244C35.1279 28.1244 34.651 28.322 34.2994 28.6736C33.9477 29.0252 33.7502 29.5021 33.7502 29.9994V33.7494C33.7502 35.2413 34.3428 36.672 35.3977 37.7269C36.4526 38.7818 37.8833 39.3744 39.3752 39.3744H41.2502V43.1244C41.2502 43.6217 41.4477 44.0986 41.7994 44.4503C42.151 44.8019 42.6279 44.9994 43.1252 44.9994C43.6225 44.9994 44.0994 44.8019 44.451 44.4503C44.8026 44.0986 45.0002 43.6217 45.0002 43.1244V29.9994C45.0002 29.5021 44.8026 29.0252 44.451 28.6736C44.0994 28.322 43.6225 28.1244 43.1252 28.1244ZM24.3752 22.4994V13.1244C24.3752 12.6271 24.1776 12.1502 23.826 11.7986C23.4744 11.447 22.9975 11.2494 22.5002 11.2494C22.0029 11.2494 21.526 11.447 21.1744 11.7986C20.8227 12.1502 20.6252 12.6271 20.6252 13.1244V20.6244H15.0002C14.5029 20.6244 14.026 20.822 13.6744 21.1736C13.3227 21.5252 13.1252 22.0021 13.1252 22.4994C13.1252 22.9967 13.3227 23.4736 13.6744 23.8252C14.026 24.1769 14.5029 24.3744 15.0002 24.3744H22.5002C22.9975 24.3744 23.4744 24.1769 23.826 23.8252C24.1776 23.4736 24.3752 22.9967 24.3752 22.4994ZM43.1252 3.74942C42.6279 3.74942 42.151 3.94696 41.7994 4.29859C41.4477 4.65023 41.2502 5.12714 41.2502 5.62442V10.0757C39.2966 7.12737 36.6754 4.68115 33.5994 2.93549C30.5234 1.18983 27.0792 0.193903 23.5463 0.0285205C20.0133 -0.136862 16.4911 0.532956 13.2655 1.98363C10.0399 3.4343 7.20165 5.62496 4.98115 8.37786C2.76065 11.1308 1.2204 14.3684 0.485379 17.828C-0.249642 21.2876 -0.15873 24.8717 0.750738 28.2896C1.66021 31.7075 3.36261 34.8629 5.71982 37.4997C8.07704 40.1364 11.0227 42.1804 14.3177 43.4657C14.5354 43.5497 14.7668 43.5929 15.0002 43.5932C15.4377 43.5938 15.8617 43.4415 16.1988 43.1625C16.5358 42.8834 16.7646 42.4953 16.8457 42.0653C16.9267 41.6353 16.8548 41.1906 16.6424 40.808C16.43 40.4255 16.0905 40.1293 15.6827 39.9707C12.8852 38.889 10.3881 37.1519 8.4009 34.9054C6.4137 32.6588 4.99445 29.9684 4.26226 27.0598C3.53007 24.1512 3.50632 21.1095 4.19301 18.1898C4.87969 15.2702 6.25677 12.5578 8.20864 10.2806C10.1605 8.00327 12.6302 6.22745 15.4104 5.10218C18.1907 3.97692 21.2003 3.53503 24.1866 3.81363C27.173 4.09223 30.0489 5.08317 32.573 6.70328C35.0971 8.32339 37.1957 10.5254 38.6927 13.1244H33.7502C33.2529 13.1244 32.776 13.322 32.4244 13.6736C32.0727 14.0252 31.8752 14.5021 31.8752 14.9994C31.8752 15.4967 32.0727 15.9736 32.4244 16.3252C32.776 16.6769 33.2529 16.8744 33.7502 16.8744H39.3752C40.867 16.8744 42.2978 16.2818 43.3527 15.2269C44.4076 14.172 45.0002 12.7413 45.0002 11.2494V5.62442C45.0002 5.12714 44.8026 4.65023 44.451 4.29859C44.0994 3.94696 43.6225 3.74942 43.1252 3.74942Z" fill="#256DF6"/>
</svg>
