<svg width="42" height="42" viewBox="0 0 42 42" fill="none" xmlns="http://www.w3.org/2000/svg">
<rect x="0.5" y="0.5" width="41" height="41" rx="9.5" fill="white" stroke="#F2F2F2"/>
<g clip-path="url(#clip0_1272_3477)">
<path d="M12.6673 20.9998C12.6673 16.3973 16.3982 12.6665 21.0007 12.6665C25.6032 12.6665 29.334 16.3973 29.334 20.9998C29.334 25.6023 25.6032 29.3332 21.0007 29.3332C16.3982 29.3332 12.6673 25.6023 12.6673 20.9998ZM23.8308 17.1162C23.7011 17.005 23.5007 17.0971 23.5007 17.268L23.5007 18.2998C23.5007 18.4103 23.4111 18.4998 23.3007 18.4998L20.3673 18.4998C20.2569 18.4998 20.1673 18.5894 20.1673 18.6998L20.1673 19.9665C20.1673 20.077 20.2569 20.1665 20.3673 20.1665L23.3007 20.1665C23.4111 20.1665 23.5007 20.256 23.5007 20.3665L23.5007 21.3983C23.5007 21.5692 23.7011 21.6614 23.8308 21.5502L26.2402 19.485C26.3333 19.4052 26.3333 19.2611 26.2402 19.1813L23.8308 17.1162ZM18.1705 24.8835C18.3002 24.9947 18.5007 24.9025 18.5007 24.7317L18.5007 23.6998C18.5007 23.5894 18.5902 23.4998 18.7007 23.4998L21.634 23.4998C21.7444 23.4998 21.834 23.4103 21.834 23.2998L21.834 22.0332C21.834 21.9227 21.7444 21.8332 21.634 21.8332L18.7007 21.8332C18.5902 21.8332 18.5007 21.7436 18.5007 21.6332L18.5007 20.6013C18.5007 20.4305 18.3002 20.3383 18.1705 20.4495L15.7611 22.5147C15.668 22.5945 15.668 22.7385 15.7611 22.8184L18.1705 24.8835Z" fill="#256DF6"/>
</g>
<defs>
<clipPath id="clip0_1272_3477">
<rect x="31" y="11" width="20" height="20" transform="rotate(90 31 11)" fill="white"/>
</clipPath>
</defs>
</svg>
