<svg width="42" height="42" viewBox="0 0 42 42" fill="none" xmlns="http://www.w3.org/2000/svg">
<rect x="0.5" y="0.5" width="41" height="41" rx="9.5" fill="white" stroke="#F2F2F2"/>
<path d="M13.75 14C13.3344 14 13 14.3344 13 14.75V27.25C13 27.6656 13.3344 28 13.75 28H14.25C14.6656 28 15 27.6656 15 27.25V14.75C15 14.3344 14.6656 14 14.25 14H13.75ZM16.5 14C16.225 14 16 14.225 16 14.5V27.5C16 27.775 16.225 28 16.5 28C16.775 28 17 27.775 17 27.5V14.5C17 14.225 16.775 14 16.5 14ZM18.75 14C18.3344 14 18 14.3344 18 14.75V27.25C18 27.6656 18.3344 28 18.75 28H19.25C19.6656 28 20 27.6656 20 27.25V14.75C20 14.3344 19.6656 14 19.25 14H18.75ZM21.75 14C21.3344 14 21 14.3344 21 14.75V27.25C21 27.6656 21.3344 28 21.75 28H22.25C22.6656 28 23 27.6656 23 27.25V14.75C23 14.3344 22.6656 14 22.25 14H21.75ZM27 14.75V27.25C27 27.6656 27.3344 28 27.75 28H28.25C28.6656 28 29 27.6656 29 27.25V14.75C29 14.3344 28.6656 14 28.25 14H27.75C27.3344 14 27 14.3344 27 14.75ZM25 14.5V27.5C25 27.775 25.225 28 25.5 28C25.775 28 26 27.775 26 27.5V14.5C26 14.225 25.775 14 25.5 14C25.225 14 25 14.225 25 14.5Z" fill="#256DF6"/>
</svg>
