<svg width="32" height="32" viewBox="0 0 32 32" fill="none" xmlns="http://www.w3.org/2000/svg">
<circle cx="16" cy="16" r="16" fill="#EFF6FF"/>
<path d="M16 16C18.1875 16 20 14.2188 20 12C20 9.8125 18.1875 8 16 8C13.7812 8 12 9.8125 12 12C12 14.2188 13.7812 16 16 16ZM18.7812 17H18.25C17.5625 17.3438 16.8125 17.5 16 17.5C15.1875 17.5 14.4062 17.3438 13.7188 17H13.1875C10.875 17 9 18.9062 9 21.2188V22.5C9 23.3438 9.65625 24 10.5 24H21.5C22.3125 24 23 23.3438 23 22.5V21.2188C23 18.9062 21.0938 17 18.7812 17Z" fill="#4993DD"/>
</svg>
