<svg width="18" height="18" viewBox="0 0 18 18" fill="none" xmlns="http://www.w3.org/2000/svg">
<path d="M9 0C11.3869 0 13.6761 0.948211 15.364 2.63604C17.0518 4.32387 18 6.61305 18 9C18 11.3869 17.0518 13.6761 15.364 15.364C13.6761 17.0518 11.3869 18 9 18C6.61305 18 4.32387 17.0518 2.63604 15.364C0.948211 13.6761 0 11.3869 0 9C0 6.61305 0.948211 4.32387 2.63604 2.63604C4.32387 0.948211 6.61305 0 9 0ZM9 7.90843L6.90943 5.81786C6.76468 5.67311 6.56835 5.59179 6.36364 5.59179C6.15893 5.59179 5.96261 5.67311 5.81786 5.81786C5.67311 5.96261 5.59179 6.15893 5.59179 6.36364C5.59179 6.56835 5.67311 6.76468 5.81786 6.90943L7.90843 9L5.81786 11.0906C5.74618 11.1622 5.68933 11.2473 5.65054 11.341C5.61175 11.4346 5.59179 11.535 5.59179 11.6364C5.59179 11.7377 5.61175 11.8381 5.65054 11.9317C5.68933 12.0254 5.74618 12.1105 5.81786 12.1821C5.88953 12.2538 5.97462 12.3107 6.06827 12.3495C6.16191 12.3882 6.26228 12.4082 6.36364 12.4082C6.465 12.4082 6.56537 12.3882 6.65902 12.3495C6.75267 12.3107 6.83776 12.2538 6.90943 12.1821L9 10.0916L11.0906 12.1821C11.1622 12.2538 11.2473 12.3107 11.341 12.3495C11.4346 12.3882 11.535 12.4082 11.6364 12.4082C11.7377 12.4082 11.8381 12.3882 11.9317 12.3495C12.0254 12.3107 12.1105 12.2538 12.1821 12.1821C12.2538 12.1105 12.3107 12.0254 12.3495 11.9317C12.3882 11.8381 12.4082 11.7377 12.4082 11.6364C12.4082 11.535 12.3882 11.4346 12.3495 11.341C12.3107 11.2473 12.2538 11.1622 12.1821 11.0906L10.0916 9L12.1821 6.90943C12.2538 6.83776 12.3107 6.75267 12.3495 6.65902C12.3882 6.56537 12.4082 6.465 12.4082 6.36364C12.4082 6.26228 12.3882 6.16191 12.3495 6.06827C12.3107 5.97462 12.2538 5.88953 12.1821 5.81786C12.1105 5.74618 12.0254 5.68933 11.9317 5.65054C11.8381 5.61175 11.7377 5.59179 11.6364 5.59179C11.535 5.59179 11.4346 5.61175 11.341 5.65054C11.2473 5.68933 11.1622 5.74618 11.0906 5.81786L9 7.90843Z" fill="#EB5757"/>
</svg>
