<svg width="22" height="22" viewBox="0 0 22 22" fill="none" xmlns="http://www.w3.org/2000/svg">
<g clip-path="url(#clip0_490_3405)">
<path d="M5.49984 10.9987C6.51236 10.9987 7.33317 10.1779 7.33317 9.16536C7.33317 8.15284 6.51236 7.33203 5.49984 7.33203C4.48732 7.33203 3.6665 8.15284 3.6665 9.16536C3.6665 10.1779 4.48732 10.9987 5.49984 10.9987Z" stroke="white" stroke-linecap="round" stroke-linejoin="round"/>
<path d="M5.5 3.66797V7.33464" stroke="white" stroke-linecap="round" stroke-linejoin="round"/>
<path d="M5.5 11V18.3333" stroke="white" stroke-linecap="round" stroke-linejoin="round"/>
<path d="M10.9998 16.4987C12.0124 16.4987 12.8332 15.6779 12.8332 14.6654C12.8332 13.6528 12.0124 12.832 10.9998 12.832C9.98732 12.832 9.1665 13.6528 9.1665 14.6654C9.1665 15.6779 9.98732 16.4987 10.9998 16.4987Z" stroke="white" stroke-linecap="round" stroke-linejoin="round"/>
<path d="M11 3.66797V12.8346" stroke="white" stroke-linecap="round" stroke-linejoin="round"/>
<path d="M11 16.5V18.3333" stroke="white" stroke-linecap="round" stroke-linejoin="round"/>
<path d="M16.4998 8.2487C17.5124 8.2487 18.3332 7.42789 18.3332 6.41536C18.3332 5.40284 17.5124 4.58203 16.4998 4.58203C15.4873 4.58203 14.6665 5.40284 14.6665 6.41536C14.6665 7.42789 15.4873 8.2487 16.4998 8.2487Z" stroke="white" stroke-linecap="round" stroke-linejoin="round"/>
<path d="M16.5 3.66797V4.58464" stroke="white" stroke-linecap="round" stroke-linejoin="round"/>
<path d="M16.5 8.25V18.3333" stroke="white" stroke-linecap="round" stroke-linejoin="round"/>
</g>
<defs>
<clipPath id="clip0_490_3405">
<rect width="22" height="22" rx="10" fill="white"/>
</clipPath>
</defs>
</svg>
