<svg width="90" height="59" viewBox="0 0 90 59" fill="none" xmlns="http://www.w3.org/2000/svg">
<g opacity="0.15">
<path fill-rule="evenodd" clip-rule="evenodd" d="M74.5851 29.7104L43.4082 11.7104C38.6253 8.94895 32.5486 10.6101 29.8355 15.4206L12.1509 46.7775C9.85298 50.8521 10.7052 55.8793 13.9262 59.0001H2.26637C0.160514 53.5502 0.412016 47.2364 3.49069 41.7775L21.1753 10.4206C26.6014 0.799548 38.7547 -2.52272 48.3206 3.00012L79.4975 21.0001C89.0633 26.523 92.4193 38.7995 86.9932 48.4206L81.0266 59.0001H69.5465L78.333 43.4206C81.046 38.6101 79.368 32.4718 74.5851 29.7104Z" fill="#256DF6"/>
<path fill-rule="evenodd" clip-rule="evenodd" d="M52.2204 49.112C49.2186 54.5638 43.1561 55.9065 39.0129 53.417C34.8696 50.9275 32.9324 44.7781 35.9342 39.3262C38.9361 33.8744 44.9985 32.5317 49.1418 35.0212C53.285 37.5107 55.2223 43.6601 52.2204 49.112ZM33.1344 59.0001H54.2154C56.1301 57.4923 57.7987 55.5553 59.0778 53.2323C64.0058 44.282 61.2849 32.9911 53.0004 28.0133C44.7159 23.0355 34.005 26.2557 29.0769 35.2059C24.5743 43.3835 26.4569 53.515 33.1344 59.0001Z" fill="#256DF6"/>
</g>
</svg>
