<svg width="24" height="18" viewBox="0 0 24 18" fill="none" xmlns="http://www.w3.org/2000/svg">
<path d="M12 13C9.79398 13 7.99998 11.206 7.99998 9C7.99998 6.794 9.79398 5 12 5C14.206 5 16 6.794 16 9C16 11.206 14.206 13 12 13ZM12 7C10.897 7 9.99998 7.897 9.99998 9C9.99998 10.103 10.897 11 12 11C13.103 11 14 10.103 14 9C14 7.897 13.103 7 12 7ZM4.99998 4C4.44798 4 3.99998 4.448 3.99998 5C3.99998 5.552 4.44798 6 4.99998 6C5.55198 6 5.99998 5.552 5.99998 5C5.99998 4.448 5.55198 4 4.99998 4ZM18 7C18 7.552 18.448 8 19 8C19.552 8 20 7.552 20 7C20 6.448 19.552 6 19 6C18.448 6 18 6.448 18 7ZM4.99998 10C4.44798 10 3.99998 10.448 3.99998 11C3.99998 11.552 4.44798 12 4.99998 12C5.55198 12 5.99998 11.552 5.99998 11C5.99998 10.448 5.55198 10 4.99998 10ZM18 13C18 13.552 18.448 14 19 14C19.552 14 20 13.552 20 13C20 12.448 19.552 12 19 12C18.448 12 18 12.448 18 13ZM16.999 18C15.365 18 13.901 17.601 12.486 17.215C11.138 16.847 9.86598 16.5 8.49998 16.5C6.92898 16.5 5.93798 16.601 5.08098 16.849C3.87498 17.196 2.60698 16.962 1.60098 16.205C0.583977 15.44 0.000976562 14.272 0.000976562 13V5.452C0.000976562 3.389 1.29998 1.508 3.23398 0.771C4.57498 0.259 5.84298 0 7.00198 0C8.63598 0 10.099 0.399 11.515 0.785C12.863 1.153 14.135 1.5 15.501 1.5C17.071 1.5 18.063 1.399 18.92 1.151C20.128 0.804 21.396 1.038 22.401 1.795C23.418 2.56 24.001 3.728 24.001 5V12.548C24.001 14.611 22.701 16.492 20.767 17.229C19.426 17.741 18.159 18 16.999 18ZM8.49998 14.5C10.134 14.5 11.597 14.899 13.013 15.285C14.361 15.653 15.633 16 16.999 16C17.913 16 18.941 15.785 20.055 15.36C21.238 14.91 22.001 13.806 22.001 12.548V5C22.001 4.363 21.708 3.777 21.198 3.394C20.699 3.019 20.072 2.901 19.473 3.073C18.422 3.376 17.271 3.5 15.499 3.5C13.865 3.5 12.402 3.101 10.986 2.715C9.63798 2.347 8.36598 2 6.99998 2C6.08498 2 5.05798 2.215 3.94398 2.64C2.76098 3.09 1.99798 4.194 1.99798 5.452V13C1.99798 13.637 2.29098 14.223 2.80098 14.606C3.29998 14.981 3.92698 15.099 4.52498 14.926C5.57598 14.623 6.72798 14.499 8.49898 14.499L8.49998 14.5Z" fill="#256DF6"/>
</svg>
