<svg width="14" height="22" viewBox="0 0 14 22" fill="none" xmlns="http://www.w3.org/2000/svg">
<path d="M3.24811 15.1156L3.12558 10.0669H4.53466C5.57615 10.0669 6.52575 9.97515 7.38345 9.79156C8.24115 9.60797 8.92527 9.25099 9.43581 8.72063C9.94634 8.19026 10.2016 7.41511 10.2016 6.39518C10.2016 5.41604 9.9055 4.65109 9.31328 4.10032C8.72105 3.52916 7.93483 3.24358 6.9546 3.24358C5.93353 3.24358 5.13709 3.52916 4.56529 4.10032C3.99349 4.65109 3.70759 5.40584 3.70759 6.36458H0.00109401C-0.0193274 5.14066 0.246151 4.04933 0.797531 3.09059C1.34891 2.13185 2.14535 1.37709 3.18684 0.826329C4.24876 0.275565 5.51489 0.000183105 6.98523 0.000183105C8.35347 0.000183105 9.55833 0.255167 10.5998 0.765134C11.6617 1.2751 12.4888 2.00945 13.081 2.96819C13.6937 3.90653 14 5.05906 14 6.42577C14 7.83328 13.6835 8.99601 13.0504 9.91395C12.4378 10.8319 11.5903 11.5153 10.5079 11.964C9.44602 12.4128 8.21052 12.6474 6.80144 12.6678L6.70954 15.1156H3.24811ZM4.99414 22.0002C4.27939 22.0002 3.68717 21.7758 3.21747 21.327C2.7682 20.8783 2.54357 20.3377 2.54357 19.7053C2.54357 19.0526 2.7682 18.5018 3.21747 18.053C3.68717 17.6043 4.27939 17.3799 4.99414 17.3799C5.70889 17.3799 6.2909 17.6043 6.74017 18.053C7.18945 18.5018 7.41408 19.0526 7.41408 19.7053C7.41408 20.3377 7.18945 20.8783 6.74017 21.327C6.2909 21.7758 5.70889 22.0002 4.99414 22.0002Z" fill="#BDBDBD"/>
</svg>
