<svg width="45" height="44" viewBox="0 0 45 44" fill="none" xmlns="http://www.w3.org/2000/svg">
<g clip-path="url(#clip0_1869_7654)">
<path d="M13.333 33C11.0455 33 8.85171 32.1308 7.23421 30.5836C5.61671 29.0365 4.70801 26.938 4.70801 24.75C4.70801 22.562 5.61671 20.4636 7.23421 18.9164C8.85171 17.3692 11.0455 16.5 13.333 16.5C13.8733 14.0932 15.4537 11.9781 17.7268 10.62C18.8522 9.94754 20.1139 9.48118 21.4396 9.24755C22.7653 9.01392 24.1292 9.01759 25.4534 9.25835C26.7775 9.4991 28.036 9.97223 29.157 10.6507C30.278 11.3292 31.2396 12.1998 31.9867 13.2127C32.7339 14.2256 33.2521 15.3611 33.5117 16.5543C33.7713 17.7474 33.7672 18.9749 33.4997 20.1667H35.333C37.0348 20.1667 38.6669 20.8427 39.8703 22.0461C41.0736 23.2494 41.7497 24.8815 41.7497 26.5833C41.7497 28.2852 41.0736 29.9173 39.8703 31.1206C38.6669 32.324 37.0348 33 35.333 33H33.4997" stroke="#BDBDBD" stroke-width="2.75" stroke-linecap="round" stroke-linejoin="round"/>
<path d="M17 27.5L22.5 22L28 27.5" stroke="#BDBDBD" stroke-width="2.75" stroke-linecap="round" stroke-linejoin="round"/>
<path d="M22.5 22V38.5" stroke="#BDBDBD" stroke-width="2.75" stroke-linecap="round" stroke-linejoin="round"/>
</g>
<defs>
<clipPath id="clip0_1869_7654">
<rect width="44" height="44" fill="white" transform="translate(0.5)"/>
</clipPath>
</defs>
</svg>
