<svg width="50" height="50" viewBox="0 0 50 50" fill="none" xmlns="http://www.w3.org/2000/svg">
<mask id="mask0_1811_5258" style="mask-type:alpha" maskUnits="userSpaceOnUse" x="0" y="0" width="50" height="50">
<circle cx="25" cy="25" r="25" fill="#F9F9F9"/>
</mask>
<g mask="url(#mask0_1811_5258)">
<path d="M36.4447 21.2786C36.0766 22.3738 36.0172 23.8645 35.3708 24.835C33.9485 26.9645 31.1893 27.3296 28.9441 28.0962C28.7958 28.1241 28.6517 28.1706 28.5152 28.2346L27.7211 28.4856C26.9575 28.726 26.197 28.9693 25.4395 29.2157C24.3869 29.558 22.9403 29.7679 22.1828 30.6319C21.7463 31.131 21.34 31.6557 20.9659 32.2032C20.8929 32.3112 20.8031 32.4298 20.6739 32.4405C20.5917 32.4405 20.5217 32.3325 20.4533 32.2884C19.1026 31.5613 18.1093 30.5634 17.2772 29.2979C14.7655 25.4199 13.7391 20.7652 14.3871 16.1905C14.3962 16.1236 14.4054 16.0582 14.416 15.9913C14.6714 14.5111 15.3461 13.1354 16.36 12.0273C17.3853 10.9139 18.5945 9.98518 19.9346 9.28166C20.7319 8.86009 21.5537 8.48675 22.3957 8.16365C24.2231 7.44229 26.1633 7.04839 28.1273 7C29.9926 7.00171 31.8397 7.367 33.5652 8.07542C35.9412 9.02611 37.7832 10.8012 37.9369 13.4875C38.089 16.1358 37.2858 18.7749 36.4447 21.2786Z" fill="#00214E"/>
<circle cx="17.872" cy="25.3837" r="2.58588" fill="#F2A196"/>
<circle cx="18.7619" cy="25.2316" r="2.43377" fill="#E88870"/>
<path d="M42.45 44.115C32.2817 51.9444 18.0988 51.8817 8 43.9629L15.4017 40.4933C15.7542 40.3276 16.0925 40.1332 16.4132 39.9122L16.5821 39.7936L16.7007 39.7023C17.5063 39.0859 18.1694 38.303 18.6447 37.407C19.2531 36.2585 19.4539 34.9899 19.4631 33.697C19.4631 33.2604 19.4539 32.8239 19.4402 32.3873C19.4265 31.9508 19.4113 31.5203 19.4068 31.0852C19.4007 30.6025 19.3956 30.1204 19.3916 29.6387L19.6714 29.7832L19.6927 29.7938L20.4837 30.203L20.8503 30.2654L25.0911 30.9864L26.772 31.2723L29.8248 31.7941L29.9678 36.6616L30.0271 38.6847L30.0378 39.0254V39.0756L31.8783 39.824L31.9924 39.8711L42.45 44.115Z" fill="#F2A196"/>
<path d="M19.4402 31.4408L24.4386 36.1289C25.9779 37.4819 27.985 38.18 30.0317 38.0744L29.9724 36.0513L29.8294 31.1838L26.7765 30.6635C26.3597 30.8522 25.943 31.0408 25.5262 31.205C24.2789 31.6964 22.8688 31.5093 21.6595 30.9982C20.7585 30.5987 19.9784 29.9692 19.3976 29.1729L19.4402 31.4408Z" fill="#E88870"/>
<path d="M42.45 44.1154C32.2817 51.9447 18.0988 51.8821 8 43.9633L15.4017 40.4937C15.7542 40.3279 16.0925 40.1336 16.4132 39.9126L16.5821 39.7939C20.2875 42.3205 25.225 43.8492 29.5115 41.9235C30.5173 41.4888 31.3781 40.7758 31.9924 39.8685L42.45 44.1154Z" fill="#845161"/>
<path d="M36.0689 26.6694C36.0048 27.7801 35.8259 28.8812 35.535 29.955C34.8794 32.5287 33.7934 35.0736 33.2534 36.0258C32.8487 36.7361 32.2844 36.873 31.3915 37.0905C29.1516 37.6032 26.7996 37.106 24.9588 35.7307L19.4189 31.6419C19.3413 30.8814 19.2105 30.0828 19.0645 29.269C18.6416 26.9052 18.094 24.4015 18.3313 22.1898C18.4084 21.561 18.7137 20.9824 19.1892 20.5637C20.4639 19.356 22.8399 18.8084 24.3214 18.4342C26.5453 17.8622 28.83 17.5215 31.0219 16.8477C32.6358 16.3457 34.3775 15.5821 35.3449 14.1279C35.3449 14.1279 35.5122 15.7722 35.5502 16.148C35.6308 16.9222 35.6293 17.5945 35.713 18.3581C35.7956 19.195 35.7443 20.0397 35.5609 20.8603C35.4346 21.4277 35.2856 21.9936 35.1791 22.5655C35.0772 23.1131 35.2217 23.1222 35.5031 23.5101C36.0811 24.3011 36.1039 25.7309 36.0689 26.6694Z" fill="#F2A196"/>
<path d="M25.8927 22.3633C26.8206 22.3633 26.8206 23.7901 25.8927 23.7977H25.8517C24.9238 23.7977 24.9238 22.3709 25.8517 22.3633H25.8927Z" fill="#00214E"/>
<path d="M33.5181 22.1504C34.379 22.158 34.379 23.4738 33.5181 23.4814H33.48C32.6176 23.4814 32.6176 22.158 33.48 22.1504H33.5181Z" fill="#00214E"/>
<path d="M30.736 22.9717C30.7284 23.0021 31.4646 24.2737 31.8479 25.6473C32.0258 26.3815 32.1086 27.1356 32.0943 27.8909H30.0393" stroke="#00214E" stroke-width="0.2"/>
<path d="M35.5427 29.9551C34.8871 32.5288 33.801 35.0736 33.261 36.0258C32.8564 36.7362 32.2921 36.8731 31.3992 37.0906C29.1593 37.6033 26.8072 37.1061 24.9664 35.7308L19.419 31.642C19.3277 30.7461 19.0007 29.8882 18.8105 29.0059C18.7284 28.6074 18.6584 28.1906 18.7558 27.7891C18.7824 28.0003 18.8731 28.1984 19.0159 28.3564C19.7338 29.333 20.5735 30.4358 21.7691 30.8374C23.0164 31.2557 24.4371 31.3211 25.6403 30.7309C26.6883 30.2167 27.7151 29.5459 28.8087 29.1231C29.5362 28.8227 30.3211 28.6871 31.1071 28.7261C32.2236 28.8021 32.7013 29.3056 33.5181 29.9703C33.7858 30.1894 34.0855 30.4175 34.4308 30.4191C34.8262 30.4251 35.2065 30.2061 35.5427 29.9551Z" fill="#00214E"/>
<path d="M28.4497 30.7778C29.4963 31.1026 30.6252 31.0372 31.6273 30.5938" stroke="#F2A196"/>
<path d="M23.6005 21.1462C25.0085 20.8542 26.457 20.813 27.8793 21.0245" stroke="#00214E" stroke-width="0.2"/>
<path d="M32.5825 21.1655C33.4526 20.9646 34.3489 20.9025 35.2384 20.9815" stroke="#00214E" stroke-width="0.2"/>
<path d="M28.3158 27.1299C28.0887 27.2461 27.9803 27.5105 28.0604 27.7526C28.1405 27.9948 28.3852 28.1424 28.6367 28.1003" stroke="#00214E" stroke-width="0.2"/>
<path d="M18.9124 29.2748L19.0645 29.2656L19.1649 29.3843L19.4919 31.4864L19.4189 31.5138L19.3094 31.3632L18.9124 29.2748Z" fill="#00214E"/>
</g>
</svg>
