<svg width="50" height="50" viewBox="0 0 50 50" fill="none" xmlns="http://www.w3.org/2000/svg">
<mask id="mask0_1811_5346" style="mask-type:alpha" maskUnits="userSpaceOnUse" x="0" y="0" width="50" height="50">
<circle cx="25" cy="25" r="25" fill="#F9F9F9"/>
</mask>
<g mask="url(#mask0_1811_5346)">
<path d="M42.45 44.3818C32.2817 52.2111 18.0988 52.1485 8 44.2296L15.4017 40.76C15.7542 40.5943 16.0925 40.4 16.4132 40.1789C16.5106 40.112 16.6079 40.042 16.7007 39.969C17.5063 39.3527 18.1694 38.5697 18.6447 37.6737C19.0044 36.9843 19.2431 36.2382 19.3505 35.4681C19.4248 34.969 19.4624 34.4652 19.4631 33.9607C19.4631 33.0906 19.4159 32.2205 19.4068 31.3489C19.4007 30.8662 19.3956 30.384 19.3916 29.9023L19.6958 30.0545L20.4868 30.4636L20.8533 30.526L25.0942 31.247L29.8279 32.0532L29.9708 36.9207L30.018 38.5118L30.0408 39.2845V39.3347L31.8814 40.0831L42.45 44.3818Z" fill="#F2D4CF"/>
<path d="M30.0408 38.9816C29.518 39.0716 28.9801 38.9883 28.5091 38.7443L19.4326 31.3244C19.422 30.9806 19.4128 31.3411 19.4083 30.9974C19.4022 30.5147 19.3971 30.0325 19.3931 29.5508L19.6973 29.7029L20.4883 30.1121L20.8548 30.1744L25.0926 30.9046L29.8263 31.7108L29.9693 36.5783L30.0165 38.1694L30.0393 38.9421V38.9923L30.0408 38.9816Z" fill="#DAAEA8"/>
<path d="M40.2581 8L40.217 8.01673L39.7516 16.8574C39.505 21.5529 36.5132 25.6616 32.1202 27.3378L19.4189 31.7292C19.4189 31.6182 18.6112 30.8166 17.5936 29.8416C14.9202 27.299 13.3713 23.795 13.2904 20.1065C13.1474 13.6707 18.1579 8.19926 24.5983 8.00304C24.72 8.00304 24.8417 8.00304 24.9649 8.00304L40.2581 8Z" fill="url(#paint0_linear_1811_5346)"/>
<path d="M40.214 8.0166L40.1334 15.9644C40.0828 21.0525 36.892 25.5795 32.1171 27.3377V16.8983C32.1171 16.8983 35.8879 8.05919 40.214 8.0166Z" fill="url(#paint1_linear_1811_5346)"/>
<circle cx="17.8945" cy="25.6445" r="2.58588" fill="#F2D4CF"/>
<circle cx="18.7165" cy="25.6452" r="2.31512" fill="#DAAEA8"/>
<path d="M18.7496 23.2048L19.4159 31.8751L29.5221 37.78C30.973 38.3212 32.5976 37.6721 33.2762 36.2802C34.7304 33.3019 37.0637 28.5986 36.7565 26.8494C36.3001 24.2635 35.0833 23.3508 35.0833 23.3508L35.5898 20.3177C35.7799 19.1754 36.0248 17.9828 35.7419 16.8344C35.4179 15.5171 34.4231 14.9558 33.6048 13.9717C31.4509 16.7462 27.9097 18.3144 24.8173 19.904C23.2217 20.7436 18.7496 23.2048 18.7496 23.2048Z" fill="#F2D4CF"/>
<path d="M23.625 21.4114C25.0332 21.1206 26.4816 21.0799 27.9039 21.2912" stroke="#00214E" stroke-width="0.2"/>
<path d="M32.6069 21.4282C33.4762 21.2257 34.3723 21.1635 35.2613 21.2442" stroke="#00214E" stroke-width="0.2"/>
<path d="M29.1039 27.2812C28.8768 27.3975 28.7684 27.6619 28.8485 27.904C28.9286 28.1462 29.1733 28.2938 29.4248 28.2517" stroke="#00214E" stroke-width="0.2"/>
<ellipse cx="25.7622" cy="23.5813" rx="0.497402" ry="1.20776" transform="rotate(-85.77 25.7622 23.5813)" fill="#00214E"/>
<ellipse cx="33.686" cy="23.4724" rx="1.20776" ry="0.497402" transform="rotate(-7.27 33.686 23.4724)" fill="#00214E"/>
<path d="M31.851 25.707C31.851 25.707 31.8951 26.5665 32.0959 26.9695C32.1826 27.143 32.3179 27.289 32.4001 27.4624C32.7378 28.121 32.1932 28.2594 31.6684 28.2594" stroke="#00214E" stroke-width="0.2"/>
<path d="M42.45 44.3815C32.2817 52.2108 18.0988 52.1482 8 44.2293L15.4017 40.7597C15.7542 40.594 16.0925 40.3997 16.4132 40.1786C16.5106 40.1117 16.6079 40.0417 16.7007 39.9687C17.5063 39.3524 18.1694 38.5694 18.6447 37.6734C19.0044 36.984 19.2431 36.2379 19.3505 35.4678C19.4579 35.5719 19.5706 35.6704 19.6882 35.7629C20.6208 36.4526 21.6331 37.0276 22.703 37.4756C23.2225 37.6923 23.7537 37.8797 24.2941 38.0369C25.9223 38.5117 27.6222 38.6915 29.3137 38.5678C29.548 38.5495 29.7838 38.5267 30.018 38.51L30.0408 39.2827V39.3329L31.8814 40.0813L42.45 44.3815Z" fill="#00214E"/>
<path d="M26.5925 30.0025C26.6342 29.9357 26.7021 29.8893 26.7796 29.8749C26.8571 29.8604 26.9371 29.8791 27.0001 29.9265C27.3165 30.1486 27.8945 30.6201 28.7159 30.7829C29.8355 31.0065 30.8059 30.5577 31.0387 30.8467C31.1695 31.0095 31.0098 31.2072 30.704 31.4552C30.0568 31.9388 29.2419 32.1411 28.4437 32.0165C27.3667 31.8142 26.5575 30.5669 26.5575 30.1242C26.5588 30.0814 26.5708 30.0395 26.5925 30.0025Z" fill="white"/>
</g>
<defs>
<linearGradient id="paint0_linear_1811_5346" x1="30.0192" y1="34.8396" x2="50.8136" y2="12.4801" gradientUnits="userSpaceOnUse">
<stop stop-color="#315676"/>
<stop offset="1" stop-color="#E1B9E0"/>
</linearGradient>
<linearGradient id="paint1_linear_1811_5346" x1="24.9019" y1="10.6408" x2="48.611" y2="32.9885" gradientUnits="userSpaceOnUse">
<stop stop-color="#315676"/>
<stop offset="1" stop-color="#E1B9E0"/>
</linearGradient>
</defs>
</svg>
