<svg width="50" height="50" viewBox="0 0 50 50" fill="none" xmlns="http://www.w3.org/2000/svg">
<mask id="mask0_1811_5237" style="mask-type:alpha" maskUnits="userSpaceOnUse" x="0" y="0" width="50" height="50">
<circle cx="25" cy="25" r="25" fill="#F9F9F9"/>
</mask>
<g mask="url(#mask0_1811_5237)">
<path d="M42.2637 44.4096C32.0941 52.2399 17.9094 52.1773 7.80933 44.2575L15.212 40.7874C15.5645 40.6217 15.9029 40.4273 16.2236 40.2063C16.321 40.1393 16.4184 40.0694 16.5112 39.9963C17.3168 39.3799 17.98 38.5969 18.4554 37.7007C18.8156 37.0098 19.0544 36.2621 19.1613 35.4903C19.2355 34.9911 19.2732 34.4873 19.2738 33.9827C19.2738 33.1125 19.2267 32.2423 19.2175 31.3706C19.2115 30.8878 19.2064 30.4056 19.2023 29.9238L19.5066 30.076L20.2977 30.4852L20.6643 30.5476L24.9057 31.2687L29.64 32.0749L29.783 36.9431L29.8301 38.5344L29.8529 39.3072V39.3574L31.6937 40.1059L42.2637 44.4096Z" fill="#F2A196"/>
<path d="M42.2637 44.4094C32.0941 52.2397 17.9094 52.1771 7.80933 44.2573L15.212 40.7872C15.5645 40.6214 15.9029 40.4271 16.2236 40.206C16.321 40.1391 16.4184 40.0691 16.5112 39.9961C20.0938 42.5458 24.9833 44.1538 29.2125 42.2507C30.2196 41.7943 31.1445 41.058 31.6922 40.1117L42.2637 44.4094Z" fill="url(#paint0_linear_1811_5237)"/>
<path d="M29.85 39.3107C28.2602 39.4066 26.6553 38.1728 24.9971 37.219C21.8921 35.4253 20.065 33.1206 20.6614 30.5557L24.9027 31.2768L29.637 32.083L29.78 36.9512L29.85 39.3107Z" fill="#E88870"/>
<path d="M37.143 14.8704C37.925 17.913 36.6516 20.7578 35.424 23.5418C33.8707 27.0606 31.6405 27.4789 28.2358 28.6412C27.4752 28.9029 19.2267 31.2457 19.2267 31.7568C19.2267 31.6458 18.4189 30.844 17.4011 29.8689C13.75 26.4018 12.5497 21.0454 14.7221 16.451C17.6126 10.3491 26.2262 9.25834 32.138 10.7416C34.1765 11.2528 36.1664 12.059 36.9316 14.1721C37.0107 14.4064 37.0822 14.6392 37.143 14.8704Z" fill="#00214E"/>
<circle cx="17.7053" cy="25.6702" r="2.58621" fill="#F2A196"/>
<circle cx="18.5271" cy="25.6699" r="2.31542" fill="#E88870"/>
<path d="M18.5603 23.2304L19.2266 31.9018L29.3341 37.8075C30.7852 38.3495 32.4106 37.7001 33.0887 36.3075C34.5431 33.3288 36.8767 28.6264 36.5694 26.8754C36.113 24.2892 34.896 23.3764 34.896 23.3764L35.4026 20.3429C35.5928 19.2005 35.8377 18.0078 35.5547 16.8592C35.2307 15.5433 34.2358 14.9804 33.4173 13.9961C31.2631 16.7709 27.7216 18.3394 24.6288 19.9292C23.0329 20.7689 18.5603 23.2304 18.5603 23.2304Z" fill="#F2A196"/>
<path d="M29.8985 22.4902C29.8863 22.542 31.9309 27.9852 31.9309 27.9852L29.2017 28.119" stroke="#00214E" stroke-width="0.2" stroke-linecap="round"/>
<path d="M23.436 21.4358C24.8444 21.145 26.293 21.1043 27.7154 21.3156" stroke="#00214E" stroke-width="0.2" stroke-linecap="round"/>
<path d="M32.4194 21.4526C33.2891 21.2517 34.185 21.1896 35.0741 21.2686" stroke="#00214E" stroke-width="0.2" stroke-linecap="round"/>
<path d="M26.4057 29.6405C26.4478 29.574 26.5156 29.528 26.593 29.5136C26.6703 29.4992 26.7502 29.5176 26.8134 29.5645C27.1299 29.7866 27.7079 30.2582 28.5294 30.421C29.6491 30.6446 30.6197 30.1958 30.8525 30.4849C30.9833 30.6476 30.8236 30.8469 30.5178 31.101C29.8708 31.5854 29.0556 31.7879 28.2571 31.6623C27.1801 31.46 26.3707 30.2125 26.3707 29.7698C26.3707 29.7244 26.3828 29.6798 26.4057 29.6405Z" fill="white"/>
<path d="M25.9235 22.9424C26.853 22.9424 26.853 24.3694 25.9235 24.377H25.8825C24.9545 24.377 24.9545 22.95 25.8825 22.9424H25.9235Z" fill="#00214E"/>
<path d="M33.5558 22.7305C34.4169 22.7381 34.4169 24.054 33.5558 24.0616H33.5178C32.6552 24.0616 32.6552 22.7381 33.5178 22.7305H33.5558Z" fill="#00214E"/>
<path d="M33.5299 11.1949C30.3311 11.2558 27.1504 11.6897 24.0522 12.488C20.9408 13.2466 17.9285 14.3658 15.0765 15.8227C15.755 12.6842 18.863 9.78767 23.0999 8.72428C27.3367 7.6609 31.4427 8.75015 33.5299 11.1949Z" fill="#00214E"/>
</g>
<defs>
<linearGradient id="paint0_linear_1811_5237" x1="7.80933" y1="50.2387" x2="42.2637" y2="50.2387" gradientUnits="userSpaceOnUse">
<stop stop-color="#16243F"/>
<stop offset="1" stop-color="#6878B1"/>
</linearGradient>
</defs>
</svg>
