<svg width="50" height="50" viewBox="0 0 50 50" fill="none" xmlns="http://www.w3.org/2000/svg">
<mask id="mask0_1811_5301" style="mask-type:alpha" maskUnits="userSpaceOnUse" x="0" y="0" width="50" height="50">
<circle cx="25" cy="25" r="25" fill="#F9F9F9"/>
</mask>
<g mask="url(#mask0_1811_5301)">
<path fill-rule="evenodd" clip-rule="evenodd" d="M31.1421 10.9573C35.7024 13.9325 36.6029 19.4694 36.6652 24.5179C36.6916 26.6523 36.6714 28.7773 36.6513 30.8996C36.6122 35.0284 36.5732 39.1467 36.8767 43.302C36.8554 43.0054 32.0472 42.292 31.498 42.2677C30.3436 42.2178 29.1495 42.3262 27.9689 42.4334C27.387 42.4862 26.8085 42.5388 26.2396 42.5719C25.2473 42.634 24.2329 42.6588 23.2129 42.6838C21.2573 42.7318 19.2813 42.7802 17.4019 43.0921C17.0375 43.1528 16.6779 43.2142 16.3212 43.2751C14.4328 43.5974 12.627 43.9057 10.6285 44.017C10.4705 44.0444 10.3079 44.0124 10.1721 43.9272C10.02 43.8025 10.02 43.5774 10.02 43.3811C10.02 41.03 10.1253 38.6799 10.2306 36.3316C10.3792 33.0146 10.5277 29.7011 10.379 26.3934C10.2467 23.5794 10.7133 20.7693 11.748 18.149C12.632 15.8895 14.0188 13.8608 15.8033 12.2167C16.2877 11.7789 16.8077 11.382 17.3578 11.0303C21.445 8.4018 27.0245 8.27098 31.1421 10.9573ZM17.732 22.3609L19.8753 23.882L26.7811 16.9777L25.9125 16.4286C25.0847 17.8316 23.9487 19.0279 22.5904 19.9272C21.0904 20.9576 19.4555 21.7765 17.732 22.3609Z" fill="#00214E"/>
<path d="M42.45 44.3991C32.2817 52.2284 18.0988 52.1658 8 44.247L15.4017 40.7773C15.6283 40.6702 15.8491 40.5514 16.0634 40.4214L16.2337 40.3149C16.2946 40.2769 16.3539 40.2374 16.4132 40.1963C17.347 39.5521 18.1124 38.6928 18.6447 37.691C19.2531 36.5426 19.4539 35.274 19.4631 33.981C19.4631 33.2707 19.4342 32.5603 19.4159 31.8515C19.4159 31.6923 19.4129 31.5326 19.4068 31.3724C19.4007 30.8907 19.3956 30.4085 19.3916 29.9258H19.4022L19.6927 30.0779L20.4837 30.4871L25.0911 31.2704L29.8248 32.0766L29.9328 35.7273L29.9632 36.7738V36.9366L30.0347 39.3506L31.7794 40.0609L33.1484 40.6146L42.45 44.3991Z" fill="#F2A196"/>
<path d="M29.9328 35.7283C29.6049 35.9528 29.2133 36.0653 28.8163 36.0492C26.5681 35.8074 22.1782 34.0444 19.4189 30.7816C19.4189 30.6224 19.4159 30.4627 19.4098 30.3025V29.9268L19.7003 30.0789L20.4913 30.488L25.0987 31.2714L29.8324 32.0776L29.9328 35.7283Z" fill="#E88870"/>
<circle cx="15.5888" cy="25.0537" r="2.58588" fill="#F2A196"/>
<circle cx="16.5015" cy="24.749" r="2.58588" fill="#E88870"/>
<path d="M33.1638 21.1377C34.9495 27.3255 31.1559 34.8079 28.8225 34.8079C25.6282 34.8079 17.8706 32.2554 16.0863 26.0676C14.302 19.8797 16.681 13.7588 21.3965 12.3989C26.1119 11.0391 31.378 14.9483 33.1638 21.1377Z" fill="#F2A196"/>
<path d="M24.3336 28.6553C25.0641 29.4719 26.0662 29.9957 27.1537 30.1292" stroke="#00214E" stroke-width="0.2"/>
<path d="M27.4702 21.7891C27.4626 21.8195 28.1988 23.0911 28.5821 24.4647C28.7601 25.1994 28.8429 25.954 28.8285 26.7098H26.7735" stroke="#00214E" stroke-width="0.2"/>
<path d="M29.3579 20.4943C30.4326 19.9469 31.6754 19.8294 32.8336 20.1658" stroke="#00214E" stroke-width="0.2"/>
<path d="M20.3605 21.1001C21.8425 20.3453 23.5837 20.2895 25.1109 20.948" stroke="#00214E" stroke-width="0.2"/>
<path d="M23.0285 22.4473C23.9564 22.4549 23.9564 23.8741 23.0285 23.8801H22.9874C22.0595 23.8801 22.0595 22.4549 22.9874 22.4473H23.0285Z" fill="#00214E"/>
<path d="M30.6538 22.2363C31.5148 22.2363 31.5148 23.5597 30.6538 23.5658H30.6158C29.7533 23.5658 29.7533 22.2424 30.6158 22.2363H30.6538Z" fill="#00214E"/>
<path d="M27.6223 10.7743C27.5515 11.4906 27.4362 12.2018 27.277 12.9038C27.0049 14.1426 26.5431 15.3319 25.908 16.4297C25.0802 17.8327 23.9442 19.029 22.5859 19.9283C21.0858 20.9587 19.451 21.7777 17.7275 22.362C16.3626 22.8257 14.9668 23.1932 13.5505 23.4618C13.5977 22.3012 13.5505 20.8653 13.6935 19.5176C13.8 18.5502 14.013 17.6268 14.4419 16.883C15.6058 14.9149 17.3035 13.3168 19.3383 12.2741L19.3566 12.2649C21.6063 11.1074 25.0912 9.96503 27.6223 10.7743Z" fill="#00214E"/>
<path d="M42.45 44.3989C32.2817 52.2282 18.0988 52.1656 8 44.2468L15.4017 40.7772C15.7542 40.6115 16.0925 40.4171 16.4132 40.1961C16.5106 40.1292 16.6079 40.0592 16.7007 39.9862C17.5063 39.3698 18.1694 38.5869 18.6447 37.6908C19.0041 37.0024 19.2428 36.2574 19.3505 35.4883C19.4579 35.5924 19.5706 35.6909 19.6882 35.7834C20.6208 36.4736 21.633 37.0492 22.703 37.4977C23.2225 37.7143 23.7537 37.9017 24.2941 38.0589C25.9223 38.5337 27.6222 38.7135 29.3137 38.5898C29.548 38.5716 29.7838 38.5487 30.018 38.532L30.0408 39.3047V39.3549L31.8814 40.1033L42.45 44.3989Z" fill="#F2D4CF"/>
<path d="M25.9049 16.4363C25.0771 17.8392 23.9411 19.0356 22.5828 19.9348C21.0828 20.9653 19.4479 21.7842 17.7244 22.3686L13.6904 19.5241L11.748 18.1551C12.632 15.8956 14.0188 13.8669 15.8033 12.2228C16.2875 11.7829 16.8075 11.384 17.3578 11.0303L19.3353 12.2806L25.9049 16.4363Z" fill="url(#paint0_linear_1811_5301)"/>
</g>
<defs>
<linearGradient id="paint0_linear_1811_5301" x1="21.243" y1="26.6368" x2="27.3592" y2="13.9458" gradientUnits="userSpaceOnUse">
<stop offset="0.29" stop-color="#00214E"/>
<stop offset="0.51" stop-color="#6878B1"/>
<stop offset="0.79" stop-color="#00214E"/>
</linearGradient>
</defs>
</svg>
