<svg width="50" height="50" viewBox="0 0 50 50" fill="none" xmlns="http://www.w3.org/2000/svg">
<mask id="mask0_1811_5279" style="mask-type:alpha" maskUnits="userSpaceOnUse" x="0" y="0" width="50" height="50">
<circle cx="25" cy="25" r="25" fill="#F9F9F9"/>
</mask>
<g mask="url(#mask0_1811_5279)">
<path d="M42.45 43.9012C32.2817 51.7305 18.0988 51.6679 8 43.7491L15.4017 40.2794C15.7542 40.1137 16.0925 39.9194 16.4132 39.6984C16.5106 39.6314 16.6079 39.5615 16.7007 39.4884C17.5063 38.8721 18.1694 38.0891 18.6447 37.1931C19.0041 36.5046 19.2428 35.7596 19.3505 34.9905C19.4248 34.4915 19.4624 33.9877 19.4631 33.4831C19.4631 32.613 19.4159 31.743 19.4068 30.8714C19.4007 30.3887 19.3956 29.9065 19.3916 29.4248L19.6958 29.5769L20.4868 29.9861L20.8533 30.0485L25.0942 30.7695L29.8279 31.5756L29.9708 36.4432L30.018 38.0343L30.0408 38.807V38.8572L31.8814 39.6056L42.45 43.9012Z" fill="#DE8276"/>
<path d="M30.0104 38.8586C29.4876 38.9485 28.9497 38.8652 28.4787 38.6213L19.4022 31.2013C19.3916 30.8576 19.3824 31.2181 19.3779 30.8743C19.3718 30.3916 19.3667 29.9094 19.3627 29.4277L19.6669 29.5798L20.4579 29.989L20.8245 30.0514L25.0653 30.7724L29.799 31.5786L29.942 36.4461L29.9891 38.0372L30.0119 38.8099V38.8601L30.0104 38.8586Z" fill="#A76962"/>
<path d="M34.6954 25.3283C34.4589 25.5756 34.1997 25.8002 33.9212 25.9991C32.3392 27.1445 30.2279 27.5202 28.4239 28.1378C27.6633 28.3979 19.4159 30.7419 19.4159 31.2515C19.4159 31.1404 18.6082 30.3388 17.5906 29.3653C14.0807 26.0037 12.9106 20.8745 14.6153 16.3233C16.2748 11.9623 21.5652 8.95664 25.9962 8.26149C28.106 7.93141 30.6097 7.74736 32.5582 8.75889C33.5546 9.27759 34.3836 10.0336 35.1441 10.8717C35.3814 11.1364 35.6116 11.4066 35.8347 11.6825C35.9305 11.7981 36.0248 11.9137 36.1176 12.0308C39.5812 16.3812 38.3537 21.4845 34.6954 25.3283Z" fill="url(#paint0_linear_1811_5279)"/>
<path d="M34.6954 25.3279C34.4589 25.5753 34.1996 25.7999 33.9211 25.9987C33.8562 25.8855 33.7978 25.7687 33.7462 25.6489C33.3446 24.7362 33.1378 23.746 32.9857 22.7588C32.7488 21.3221 32.5868 19.8741 32.5004 18.4206C32.362 16.0872 31.3657 14.9296 33.3477 13.1104C34.061 12.4567 34.9104 11.9694 35.8347 11.6836C35.9305 11.7992 36.0248 11.9148 36.1176 12.0319C39.5812 16.3808 38.3536 21.4841 34.6954 25.3279Z" fill="url(#paint1_linear_1811_5279)"/>
<circle cx="17.8947" cy="25.1689" r="2.58588" fill="#E18477"/>
<circle cx="18.7162" cy="25.1686" r="2.31512" fill="#A76962"/>
<path d="M18.9094 22.7164C19.0356 24.3683 19.0311 26.3853 19.0752 26.9755C19.1898 28.455 19.3033 29.934 19.4159 31.4125L29.5221 37.3159C30.9726 37.8581 32.5976 37.2095 33.2762 35.8176C34.7304 32.8393 37.0638 28.1361 36.7565 26.3868C36.3002 23.8009 35.0833 22.8882 35.0833 22.8882L35.5898 19.8552C36.1024 16.7719 35.0453 13.8529 31.4433 13.5152C30.6827 13.4452 29.8355 13.5897 29.3837 14.1967C28.1668 15.8334 28.868 17.8473 27.0412 19.3684C24.8234 21.1983 19.8753 21.9969 18.7162 20.5199C18.7162 20.5199 18.8227 21.5649 18.9094 22.7164Z" fill="#DE8276"/>
<path d="M26.4936 29.1689C27.2245 29.9851 28.2264 30.5088 29.3137 30.6429" stroke="#00214E" stroke-width="0.2"/>
<path d="M30.0866 21.9883C30.0744 22.0415 32.1188 27.484 32.1188 27.484L29.3899 27.6164" stroke="#00214E" stroke-width="0.2"/>
<circle cx="26.3658" cy="23.9105" r="2.306" fill="#00214E"/>
<circle cx="34.1783" cy="23.5384" r="2.306" fill="#00214E"/>
<path d="M28.2307 24.0455L32.1141 23.7139" stroke="#00214E"/>
<path d="M23.6248 20.9318C25.0329 20.6405 26.4812 20.5993 27.9036 20.8101" stroke="#00214E" stroke-width="0.2"/>
<path d="M32.6069 20.9517C33.4762 20.7491 34.3723 20.687 35.2613 20.7676" stroke="#00214E" stroke-width="0.2"/>
<path d="M42.45 43.9009C32.2817 51.7302 18.0988 51.6676 8 43.7488L15.4017 40.2791C15.7542 40.1134 16.0925 39.9191 16.4132 39.6981C16.5106 39.6311 16.6079 39.5612 16.7007 39.4881C17.5063 38.8718 18.1694 38.0888 18.6447 37.1928C19.0041 36.5043 19.2428 35.7593 19.3505 34.9902C19.4579 35.0943 19.5706 35.1928 19.6882 35.2853C20.6208 35.975 21.6331 36.5501 22.703 36.9981C23.2225 37.2148 23.7537 37.4022 24.2941 37.5594C25.9223 38.0342 27.6222 38.2139 29.3137 38.0902C29.548 38.072 29.7838 38.0492 30.018 38.0324L30.0408 38.8052V38.8554L31.8814 39.6037L42.45 43.9009Z" fill="#00214E"/>
<path d="M25.6981 22.6416C26.626 22.6416 26.626 24.0684 25.6981 24.076H25.6555C24.7261 24.076 24.7261 22.6492 25.6555 22.6416H25.6966H25.6981Z" fill="#00214E"/>
<path d="M33.3234 22.4307C34.1843 22.4383 34.1843 23.754 33.3234 23.7616H33.2838C32.4229 23.7616 32.4229 22.4383 33.2838 22.4307H33.3234Z" fill="#00214E"/>
</g>
<defs>
<linearGradient id="paint0_linear_1811_5279" x1="13.8334" y1="31.2574" x2="38.1681" y2="31.2574" gradientUnits="userSpaceOnUse">
<stop stop-color="#16243F"/>
<stop offset="1" stop-color="#6878B1"/>
</linearGradient>
<linearGradient id="paint1_linear_1811_5279" x1="28.1653" y1="21.094" x2="38.3684" y2="23.9887" gradientUnits="userSpaceOnUse">
<stop stop-color="#16243F"/>
<stop offset="1" stop-color="#6878B1"/>
</linearGradient>
</defs>
</svg>
