<svg width="50" height="50" viewBox="0 0 50 50" fill="none" xmlns="http://www.w3.org/2000/svg">
<mask id="mask0_1811_5323" style="mask-type:alpha" maskUnits="userSpaceOnUse" x="0" y="0" width="50" height="50">
<circle cx="25" cy="25" r="25" fill="#F9F9F9"/>
</mask>
<g mask="url(#mask0_1811_5323)">
<circle cx="21.891" cy="14.1813" r="4.18133" fill="url(#paint0_linear_1811_5323)"/>
<path d="M25.5038 36.873C23.3198 36.8351 21.1416 36.6355 18.9871 36.2758C14.6953 35.5587 10.4935 34.1886 6.68167 32.0768C6.45535 31.95 6.22904 31.8218 6 31.691C9.3797 28.483 11.8882 24.6016 14.0082 20.4844C15.5351 17.5137 16.3259 15.5546 19.6238 14.3044C25.3579 12.1326 33.1044 14.2444 34.7349 20.6957C35.4234 23.4224 35.4493 26.2731 35.058 29.0475C34.6804 31.7305 33.6865 36.8975 33.6865 36.8975C33.6865 36.8975 26.574 36.8921 25.5038 36.873Z" fill="url(#paint1_linear_1811_5323)"/>
<path d="M40.45 45.5975C31.3364 52.6147 18.6245 52.5586 9.57324 45.4611L16.2072 42.3514C16.4103 42.2554 16.6082 42.1489 16.8003 42.0324L16.953 41.9369C17.0075 41.9029 17.0607 41.8674 17.1138 41.8306C17.9509 41.2528 18.6369 40.4822 19.1138 39.5838C19.6592 38.5545 19.8391 37.4175 19.8473 36.2587C19.8473 35.622 19.8214 34.9853 19.805 34.35C19.805 34.2064 19.8023 34.0632 19.7969 33.9206C19.7914 33.4879 19.7869 33.0557 19.7832 32.624H19.7928L20.0532 32.7604L20.7621 33.1271L24.8916 33.8292L29.1343 34.5518L29.2311 37.8238L29.2584 38.7617V38.9076L29.3224 41.0712L30.8862 41.7079L32.1132 42.2041L40.45 45.5975Z" fill="#F2A196"/>
<path d="M29.2311 37.8267C28.9373 38.0279 28.5863 38.1288 28.2304 38.1144C26.2141 37.8976 22.2809 36.3175 19.8051 33.3931C19.8051 33.2495 19.8023 33.1064 19.7969 32.9637V32.627L20.0573 32.7633L20.7662 33.13L24.8957 33.8321L29.1384 34.5547L29.2311 37.8267Z" fill="#E88870"/>
<circle cx="16.3736" cy="28.2591" r="2.31766" fill="#F2A196"/>
<circle cx="17.1916" cy="27.9866" r="2.31766" fill="#E88870"/>
<path d="M32.1255 24.7496C33.7274 30.2957 30.3259 37.0019 28.2345 37.0019C25.3715 37.0019 18.4186 34.7142 16.8194 29.1682C15.2202 23.6222 17.3415 18.1361 21.5678 16.9159C25.7942 15.6958 30.5249 19.2077 32.1255 24.7496Z" fill="#F2A196"/>
<path d="M23.5147 25.9014C24.3463 25.9082 24.3463 27.1788 23.5147 27.1856H23.4765C22.6449 27.1788 22.6449 25.9082 23.4765 25.9014H23.5133H23.5147Z" fill="#00214E"/>
<path d="M30.3667 25.3779C31.1397 25.3847 31.1397 26.564 30.3667 26.5708H30.3326C29.561 26.5708 29.561 25.3847 30.3326 25.3779H30.3667Z" fill="#00214E"/>
<circle cx="23.5134" cy="26.5552" r="2.59033" stroke="white" stroke-width="0.4"/>
<circle cx="30.7567" cy="26.146" r="2.59033" stroke="white" stroke-width="0.4"/>
<path d="M26.8494 17.3759C26.2618 19.9254 24.9816 22.0903 22.6421 23.6677C20.1172 25.4155 17.4519 26.258 14.5439 26.8374C14.6176 25.0501 14.4212 22.5361 15.3429 20.9424C16.3888 19.1728 17.9166 17.7373 19.7478 16.8033C21.7669 15.7604 24.8903 14.7379 27.1588 15.4605C27.0958 16.1048 26.9924 16.7445 26.8494 17.3759Z" fill="url(#paint2_linear_1811_5323)"/>
<path d="M27.0866 25.0088C27.0757 25.0551 28.1664 29.4178 28.1664 29.4178H26.4622" stroke="#00214E" stroke-width="0.2"/>
<path d="M28.6489 23.6165C29.6117 23.1245 30.7262 23.0191 31.7641 23.322" stroke="#00214E" stroke-width="0.2"/>
<path d="M21.1357 24.1161C22.464 23.4395 24.0245 23.3896 25.3934 23.9797" stroke="#00214E" stroke-width="0.2"/>
<path d="M26.1036 26.5548L28.1664 26.3789" stroke="white" stroke-width="0.4"/>
<path d="M40.4487 45.5983C31.3351 52.6155 18.6233 52.5594 9.57202 45.462L16.206 42.3522C16.5219 42.2037 16.8251 42.0295 17.1126 41.8314C17.1999 41.7714 17.2871 41.7087 17.3703 41.6433C18.0929 41.0906 18.6877 40.3884 19.114 39.5847C19.4353 38.9683 19.6488 38.3016 19.7452 37.6133C19.8415 37.7066 19.9425 37.7949 20.0479 37.8778C20.8838 38.4959 21.791 39.0113 22.75 39.4129C23.2155 39.6071 23.6916 39.775 24.176 39.9159C25.6353 40.3415 27.159 40.5026 28.675 40.3917C28.885 40.3754 29.0963 40.3549 29.3062 40.3399L29.3267 41.0325V41.0775L30.9763 41.7483L40.4487 45.5983Z" fill="#845161"/>
<path d="M23.5434 30.957C23.5813 30.8973 23.6424 30.8561 23.7119 30.8432C23.7815 30.8302 23.8532 30.8468 23.9101 30.8888C24.1923 31.0879 24.7104 31.5105 25.4466 31.6564C26.45 31.8568 27.3212 31.4546 27.5284 31.7137C27.6456 31.8595 27.5025 32.0381 27.2285 32.2658C26.6488 32.6992 25.919 32.8805 25.2039 32.7689C24.2373 32.5876 23.5134 31.4696 23.5134 31.0729C23.5129 31.0323 23.5233 30.9923 23.5434 30.957Z" fill="white"/>
</g>
<defs>
<linearGradient id="paint0_linear_1811_5323" x1="17.7097" y1="18.3634" x2="26.0737" y2="18.3634" gradientUnits="userSpaceOnUse">
<stop stop-color="#16243F"/>
<stop offset="1" stop-color="#6878B1"/>
</linearGradient>
<linearGradient id="paint1_linear_1811_5323" x1="24.0374" y1="45.457" x2="36.496" y2="25.4908" gradientUnits="userSpaceOnUse">
<stop stop-color="#16243F"/>
<stop offset="1" stop-color="#6878B1"/>
</linearGradient>
<linearGradient id="paint2_linear_1811_5323" x1="18.8402" y1="30.7943" x2="25.0115" y2="22.3476" gradientUnits="userSpaceOnUse">
<stop stop-color="#16243F"/>
<stop offset="1" stop-color="#6878B1"/>
</linearGradient>
</defs>
</svg>
