<svg width="30" height="30" viewBox="0 0 30 30" fill="none" xmlns="http://www.w3.org/2000/svg">
<rect width="30" height="30" rx="4" fill="#256DF6"/>
<path d="M15.94 20.86L15 21.4666C14.1267 22.0066 12.9133 21.4 12.9133 20.32V16.7533C12.9133 16.28 12.6467 15.6733 12.3733 15.34L9.81331 12.6466C9.47331 12.3066 9.20667 11.7066 9.20667 11.3V9.7533C9.20667 8.94663 9.81334 8.33997 10.5533 8.33997H19.4467C20.1867 8.33997 20.7933 8.94663 20.7933 9.68663V11.1666C20.7933 11.7066 20.4533 12.38 20.12 12.7133" stroke="white" stroke-miterlimit="10" stroke-linecap="round" stroke-linejoin="round"/>
<path d="M18.3866 14.9267L16.0266 17.2867C15.9333 17.38 15.8466 17.5533 15.8266 17.68L15.6999 18.58C15.6533 18.9067 15.8799 19.1334 16.2066 19.0867L17.1066 18.96C17.2333 18.94 17.4133 18.8534 17.4999 18.76L19.8599 16.4C20.2666 15.9934 20.4599 15.52 19.8599 14.92C19.2666 14.3267 18.7933 14.52 18.3866 14.9267Z" stroke="white" stroke-miterlimit="10" stroke-linecap="round" stroke-linejoin="round"/>
<path d="M18.0533 15.26C18.2533 15.98 18.8133 16.54 19.5333 16.74" stroke="white" stroke-miterlimit="10" stroke-linecap="round" stroke-linejoin="round"/>
</svg>
