<svg width="20" height="20" viewBox="0 0 20 20" fill="none" xmlns="http://www.w3.org/2000/svg">
<g clip-path="url(#clip0_359_3938)">
<path d="M9.99999 18.3327C5.39749 18.3327 1.66666 14.6018 1.66666 9.99935C1.66666 5.39685 5.39749 1.66602 9.99999 1.66602C14.6025 1.66602 18.3333 5.39685 18.3333 9.99935C18.3333 14.6018 14.6025 18.3327 9.99999 18.3327ZM9.99999 16.666C11.7681 16.666 13.4638 15.9636 14.714 14.7134C15.9643 13.4632 16.6667 11.7675 16.6667 9.99935C16.6667 8.23124 15.9643 6.53555 14.714 5.2853C13.4638 4.03506 11.7681 3.33268 9.99999 3.33268C8.23188 3.33268 6.53619 4.03506 5.28594 5.2853C4.0357 6.53555 3.33332 8.23124 3.33332 9.99935C3.33332 11.7675 4.0357 13.4632 5.28594 14.7134C6.53619 15.9636 8.23188 16.666 9.99999 16.666ZM9.16666 13.3327C9.16666 12.8724 9.53975 12.4993 9.99999 12.4993C10.4602 12.4993 10.8333 12.8724 10.8333 13.3327C10.8333 13.7929 10.4602 14.166 9.99999 14.166C9.53975 14.166 9.16666 13.7929 9.16666 13.3327ZM11.0505 11.0544C10.9234 11.1034 10.8333 11.2219 10.8333 11.3581C10.8333 11.5281 10.6954 11.666 10.5254 11.666H9.99999C9.53975 11.666 9.16666 11.2929 9.16666 10.8327V10.416C9.16666 10.195 9.25445 9.98304 9.41073 9.82676C9.56701 9.67048 9.77898 9.58268 9.99999 9.58268C10.2367 9.58267 10.4686 9.51543 10.6686 9.38879C10.8686 9.26215 11.0285 9.08132 11.1298 8.86733C11.2311 8.65335 11.2695 8.41501 11.2406 8.18005C11.2117 7.94509 11.1166 7.72317 10.9665 7.54011C10.8164 7.35705 10.6174 7.22037 10.3927 7.14599C10.1679 7.07161 9.92669 7.06257 9.69701 7.11994C9.46733 7.1773 9.25867 7.29871 9.0953 7.47003C8.82644 7.75196 8.46441 8.02564 8.08243 7.94913L7.9564 7.92388C7.50502 7.83347 7.20255 7.38482 7.41642 6.97717C7.52563 6.769 7.66007 6.57389 7.81742 6.3965C8.16027 6.01002 8.59959 5.7215 9.09048 5.56045C9.58137 5.3994 10.1062 5.37159 10.6114 5.47986C11.1166 5.58814 11.5839 5.82861 11.9657 6.1767C12.3474 6.5248 12.6299 6.96802 12.7842 7.46107C12.9386 7.95412 12.9592 8.4793 12.844 8.98294C12.7289 9.48658 12.482 9.9506 12.1288 10.3276C11.8279 10.6486 11.4591 10.8967 11.0505 11.0544Z" fill="#454545"/>
</g>
<defs>
<clipPath id="clip0_359_3938">
<rect width="20" height="20" fill="white"/>
</clipPath>
</defs>
</svg>
