<svg width="20" height="21" viewBox="0 0 20 21" fill="none" xmlns="http://www.w3.org/2000/svg">
<path d="M9.33594 0.773438L1.21094 3.82031C0.46875 4.09375 0 4.79688 0 5.57812V14.3672C0 15.0703 0.390625 15.7344 1.01562 16.0469L9.14062 20.1094C9.6875 20.3828 10.2734 20.3828 10.8203 20.1094L18.9453 16.0469C19.5703 15.7344 19.9609 15.0703 19.9609 14.3672V5.57812C19.9609 4.79688 19.4922 4.09375 18.75 3.82031L10.625 0.773438C10.2344 0.617188 9.76562 0.617188 9.33594 0.773438ZM10 3.19531L17.5 6.00781V6.04688L10 9.09375L2.5 6.04688V6.00781L10 3.19531ZM11.25 17.1016V11.2812L17.5 8.74219V13.9766L11.25 17.1016Z" fill="#256DF6"/>
</svg>
