<svg width="20" height="19" viewBox="0 0 20 19" fill="none" xmlns="http://www.w3.org/2000/svg">
<path d="M19.0625 9.30469L15.3125 7.85938V3.64062C15.3125 3.05469 14.9219 2.54688 14.375 2.3125L10.4688 0.867188C10.1562 0.75 9.80469 0.75 9.49219 0.867188L5.58594 2.3125C5.03906 2.54688 4.64844 3.05469 4.64844 3.64062V7.85938L0.898438 9.30469C0.351562 9.5 0 10.0078 0 10.5938V14.8906C0 15.4375 0.273438 15.9453 0.742188 16.1797L4.64844 18.1328C5.07812 18.3281 5.54688 18.3281 5.9375 18.1328L10 16.1016L14.0234 18.1328C14.4531 18.3281 14.9219 18.3281 15.3125 18.1328L19.2188 16.1797C19.6875 15.9453 20 15.4375 20 14.8906V10.5938C20 10.0078 19.6094 9.5 19.0625 9.30469ZM13.9844 7.89844L10.6641 9.14844V6.49219L13.9844 5.04688V7.89844ZM6.01562 3.60156L10 2.07812L13.9844 3.60156L10 5.24219L6.01562 3.60156ZM9.29688 14.9688L5.97656 16.6094V13.5234L9.29688 12V14.9688ZM9.29688 10.5938L5.3125 12.1953L1.32812 10.5938V10.5547L5.3125 9.07031L9.29688 10.5547V10.5938ZM18.6719 14.9688L15.3516 16.6094V13.5234L18.6719 12V14.9688ZM18.6719 10.5938L14.6875 12.1953L10.7031 10.5938V10.5547L14.6875 9.07031L18.6719 10.5547V10.5938Z" fill="#256DF6"/>
</svg>
