<svg width="24" height="24" viewBox="0 0 24 24" fill="none" xmlns="http://www.w3.org/2000/svg">
<path d="M11.999 22.752C6.06902 22.752 1.24902 17.932 1.24902 12.002C1.24902 6.07195 6.06902 1.25195 11.999 1.25195C17.929 1.25195 22.749 6.07195 22.749 12.002C22.749 17.932 17.929 22.752 11.999 22.752ZM11.999 2.75195C6.89902 2.75195 2.74902 6.90195 2.74902 12.002C2.74902 17.102 6.89902 21.252 11.999 21.252C17.099 21.252 21.249 17.102 21.249 12.002C21.249 6.90195 17.099 2.75195 11.999 2.75195Z" fill="#F2F2F2"/>
<path d="M9.16937 15.5813C8.97937 15.5813 8.78938 15.5113 8.63938 15.3613C8.34938 15.0713 8.34938 14.5913 8.63938 14.3013L14.2994 8.64133C14.5894 8.35133 15.0694 8.35133 15.3594 8.64133C15.6494 8.93133 15.6494 9.41133 15.3594 9.70133L9.69937 15.3613C9.55937 15.5113 9.35937 15.5813 9.16937 15.5813Z" fill="#637381"/>
<path d="M14.8294 15.5813C14.6394 15.5813 14.4494 15.5113 14.2994 15.3613L8.63938 9.70133C8.34938 9.41133 8.34938 8.93133 8.63938 8.64133C8.92938 8.35133 9.40937 8.35133 9.69937 8.64133L15.3594 14.3013C15.6494 14.5913 15.6494 15.0713 15.3594 15.3613C15.2094 15.5113 15.0194 15.5813 14.8294 15.5813Z" fill="#637381"/>
</svg>
