<svg width="41" height="41" viewBox="0 0 41 41" fill="none" xmlns="http://www.w3.org/2000/svg">
<path d="M29.104 0H11.9164C4.45072 0 0 4.4485 0 11.9105V29.069C0 36.5515 4.45072 41 11.9164 41H29.0835C36.5492 41 40.9999 36.5515 40.9999 29.0895V11.9105C41.0204 4.4485 36.5697 0 29.104 0ZM27.4017 25.215C27.9965 25.8095 27.9965 26.7935 27.4017 27.388C27.094 27.6955 26.7043 27.839 26.3146 27.839C25.9249 27.839 25.5352 27.6955 25.2276 27.388L20.5102 22.673L15.7929 27.388C15.4852 27.6955 15.0955 27.839 14.7058 27.839C14.3161 27.839 13.9264 27.6955 13.6188 27.388C13.024 26.7935 13.024 25.8095 13.6188 25.215L18.3361 20.5L13.6188 15.785C13.024 15.1905 13.024 14.2065 13.6188 13.612C14.2136 13.0175 15.1981 13.0175 15.7929 13.612L20.5102 18.327L25.2276 13.612C25.8224 13.0175 26.8069 13.0175 27.4017 13.612C27.9965 14.2065 27.9965 15.1905 27.4017 15.785L22.6843 20.5L27.4017 25.215Z" fill="#256DF6"/>
</svg>
