<svg width="45" height="45" viewBox="0 0 45 45" fill="none" xmlns="http://www.w3.org/2000/svg">
<rect width="45" height="45" rx="8" fill="#256DF6"/>
<path d="M15.9283 29.1111H27.0717C27.3069 29.1112 27.5334 29.2021 27.7053 29.3654C27.8773 29.5288 27.9818 29.7524 27.9978 29.9912C28.0139 30.2299 27.9402 30.4659 27.7917 30.6516C27.6433 30.8372 27.431 30.9586 27.198 30.9912L27.0717 31H15.9283C15.6931 30.9999 15.4666 30.909 15.2947 30.7457C15.1227 30.5823 15.0182 30.3587 15.0022 30.1199C14.9861 29.8812 15.0598 29.6452 15.2083 29.4595C15.3567 29.2739 15.569 29.1525 15.802 29.1199L15.9283 29.1111H27.0717H15.9283ZM21.3737 14.0088L21.5 14C21.7244 14 21.9412 14.0827 22.1103 14.2327C22.2794 14.3827 22.3894 14.5899 22.4199 14.816L22.4286 14.9444V24.6256L25.2206 21.7873C25.3781 21.6272 25.5869 21.5299 25.8089 21.5133C26.0309 21.4967 26.2515 21.5617 26.4303 21.6966L26.5343 21.7873C26.6917 21.9474 26.7873 22.1597 26.8037 22.3856C26.82 22.6114 26.7561 22.8357 26.6235 23.0176L26.5343 23.1233L22.1562 27.5748C21.999 27.7348 21.7905 27.832 21.5688 27.8489C21.347 27.8658 21.1267 27.8011 20.9478 27.6667L20.8438 27.5748L16.4657 23.1233C16.2995 22.9548 16.2023 22.7286 16.1935 22.4901C16.1846 22.2516 16.2649 22.0186 16.4182 21.8378C16.5714 21.6571 16.7862 21.5421 17.0195 21.5159C17.2527 21.4897 17.487 21.5542 17.6754 21.6966L17.7794 21.7873L20.5714 24.6281V14.9444C20.5714 14.7162 20.6527 14.4957 20.8002 14.3237C20.9477 14.1517 21.1514 14.0399 21.3737 14.0088L21.5 14L21.3737 14.0088Z" fill="white"/>
</svg>
