<svg width="24" height="24" viewBox="0 0 24 24" fill="none" xmlns="http://www.w3.org/2000/svg">
<path d="M17.028 0H6.972C2.604 0 0 2.604 0 6.972V17.016C0 21.396 2.604 24 6.972 24H17.016C21.384 24 23.988 21.396 23.988 17.028V6.972C24 2.604 21.396 0 17.028 0ZM10.74 18.612C10.392 18.96 9.732 19.296 9.252 19.368L6.3 19.788C6.192 19.8 6.084 19.812 5.976 19.812C5.484 19.812 5.028 19.644 4.704 19.32C4.308 18.924 4.14 18.348 4.236 17.712L4.656 14.76C4.728 14.268 5.052 13.62 5.412 13.272L10.764 7.92C10.86 8.172 10.956 8.424 11.088 8.712C11.208 8.964 11.34 9.228 11.484 9.468C11.604 9.672 11.736 9.864 11.844 10.008C11.976 10.212 12.132 10.404 12.228 10.512C12.288 10.596 12.336 10.656 12.36 10.68C12.66 11.04 13.008 11.376 13.308 11.628C13.392 11.712 13.44 11.76 13.464 11.772C13.644 11.916 13.824 12.06 13.98 12.168C14.172 12.312 14.364 12.444 14.568 12.552C14.808 12.696 15.072 12.828 15.336 12.96C15.612 13.08 15.864 13.188 16.116 13.272L10.74 18.612ZM18.444 10.908L17.34 12.024C17.268 12.096 17.172 12.132 17.076 12.132C17.04 12.132 16.992 12.132 16.968 12.12C14.532 11.424 12.588 9.48 11.892 7.044C11.856 6.912 11.892 6.768 11.988 6.684L13.104 5.568C14.928 3.744 16.668 3.78 18.456 5.568C19.368 6.48 19.812 7.356 19.812 8.268C19.8 9.132 19.356 9.996 18.444 10.908Z" fill="#256DF6"/>
</svg>
