<svg width="37" height="39" viewBox="0 0 37 39" fill="none" xmlns="http://www.w3.org/2000/svg">
<path fill-rule="evenodd" clip-rule="evenodd" d="M28.849 15.7509C29.2734 15.7462 30.5801 14.8976 31 14.8976C31 15.4504 31 16.7719 31 17.2141V31.4365C31 35.8235 27.2531 39 22.7755 39H8.60408C3.90985 39 0 35.6466 0 31.0473V11.978C0 7.59102 3.64706 4.00005 8.14269 4.00005H17.7839C18.2533 4.00005 20.751 4.00005 20.751 4.00005V10.6968C22.6187 14.1374 22.2507 14.3888 25.3061 15.7509C26.0779 15.7509 26.0968 16.4237 26.6923 16.4286C27.1555 16.4324 27.5673 16.4358 27.9307 16.4358C28.1877 16.4358 28.4886 15.7549 28.849 15.7509ZM9.894 29.4553H19.7158C20.456 29.4553 21.0699 28.8538 21.0699 28.1286C21.0699 27.4033 20.456 26.8195 19.7158 26.8195H9.894C9.15376 26.8195 8.5399 27.4033 8.5399 28.1286C8.5399 28.8538 9.15376 29.4553 9.894 29.4553ZM15.9965 17.9748H9.894C9.15376 17.9748 8.5399 18.5762 8.5399 19.3015C8.5399 20.0268 9.15376 20.6105 9.894 20.6105H15.9965C16.7368 20.6105 17.3506 20.0268 17.3506 19.3015C17.3506 18.5762 16.7368 17.9748 15.9965 17.9748Z" fill="#BDBDBD"/>
<path d="M29.379 13.846C27.8949 13.8513 26.1454 13.846 24.887 13.8337C22.8902 13.8337 21.2454 12.2221 21.2454 10.2657V5.60272C21.2454 4.8403 22.1896 4.46174 22.7295 5.01189C23.7067 6.00739 25.0495 7.37582 26.3863 8.73797C27.7194 10.0964 29.0463 11.4487 29.9983 12.4185C30.5255 12.9545 30.1391 13.8443 29.379 13.846Z" fill="#BDBDBD"/>
<path d="M27 1.25C22.7188 1.25 19.25 4.71875 19.25 9C19.25 13.2812 22.7188 16.75 27 16.75C31.2812 16.75 34.75 13.2812 34.75 9C34.75 4.71875 31.2812 1.25 27 1.25Z" fill="white"/>
<path d="M34.75 9C34.75 4.75 31.25 1.25 27 1.25C22.7188 1.25 19.25 4.75 19.25 9C19.25 13.2812 22.7188 16.75 27 16.75C31.25 16.75 34.75 13.2812 34.75 9ZM26.0938 13.125C25.9062 13.3125 25.5625 13.3125 25.375 13.125L22.125 9.875C21.9375 9.6875 21.9375 9.34375 22.125 9.15625L22.8438 8.46875C23.0312 8.25 23.3438 8.25 23.5312 8.46875L25.75 10.6562L30.4375 5.96875C30.625 5.75 30.9375 5.75 31.125 5.96875L31.8438 6.65625C32.0312 6.84375 32.0312 7.1875 31.8438 7.375L26.0938 13.125Z" fill="#6FCF97"/>
</svg>
