<svg width="28" height="32" viewBox="0 0 28 32" fill="none" xmlns="http://www.w3.org/2000/svg">
<path fill-rule="evenodd" clip-rule="evenodd" d="M26.0862 11.241C26.4695 11.2367 26.8869 11.232 27.2662 11.232C27.6738 11.232 28 11.552 28 11.952V24.816C28 28.784 24.7222 32 20.6779 32H7.69715C3.45719 32 0 28.624 0 24.464V7.216C0 3.248 3.29412 0 7.35469 0H16.0629C16.4869 0 16.813 0.336 16.813 0.736V5.888C16.813 8.816 19.2755 11.216 22.2598 11.232C22.9568 11.232 23.5713 11.2371 24.1091 11.2415C24.5275 11.2449 24.8995 11.248 25.2277 11.248C25.4599 11.248 25.7608 11.2446 26.0862 11.241ZM8.93652 23.024H17.8078C18.4764 23.024 19.0309 22.48 19.0309 21.824C19.0309 21.168 18.4764 20.64 17.8078 20.64H8.93652C8.26791 20.64 7.71345 21.168 7.71345 21.824C7.71345 22.48 8.26791 23.024 8.93652 23.024ZM14.4485 12.64H8.93652C8.26791 12.64 7.71345 13.184 7.71345 13.84C7.71345 14.496 8.26791 15.024 8.93652 15.024H14.4485C15.1171 15.024 15.6715 14.496 15.6715 13.84C15.6715 13.184 15.1171 12.64 14.4485 12.64Z" fill="#BDBDBD"/>
<path d="M26.5359 8.9056C25.1954 8.9104 23.6152 8.9056 22.4786 8.8944C20.675 8.8944 19.1894 7.4368 19.1894 5.6672V1.4496C19.1894 0.76 20.0423 0.4176 20.5299 0.9152C21.4125 1.81562 22.6254 3.05335 23.8327 4.2854C25.0368 5.51412 26.2354 6.73719 27.0953 7.6144C27.5714 8.0992 27.2225 8.904 26.5359 8.9056Z" fill="#BDBDBD"/>
</svg>
