<svg width="32" height="36" viewBox="0 0 32 36" fill="none" xmlns="http://www.w3.org/2000/svg">
<path fill-rule="evenodd" clip-rule="evenodd" d="M26.0862 15.241C26.4695 15.2367 26.8869 15.232 27.2662 15.232C27.6738 15.232 28 15.552 28 15.952V28.816C28 32.784 24.7222 36 20.6779 36H7.69715C3.45719 36 0 32.624 0 28.464V11.216C0 7.248 3.29412 4 7.35469 4H16.0629C16.4869 4 16.813 4.336 16.813 4.736V9.888C16.813 12.816 19.2755 15.216 22.2598 15.232C22.9568 15.232 23.5713 15.2371 24.1091 15.2415C24.5275 15.2449 24.8995 15.248 25.2277 15.248C25.4599 15.248 25.7608 15.2446 26.0862 15.241ZM8.93652 27.024H17.8078C18.4764 27.024 19.0309 26.48 19.0309 25.824C19.0309 25.168 18.4764 24.64 17.8078 24.64H8.93652C8.26791 24.64 7.71345 25.168 7.71345 25.824C7.71345 26.48 8.26791 27.024 8.93652 27.024ZM14.4485 16.64H8.93652C8.26791 16.64 7.71345 17.184 7.71345 17.84C7.71345 18.496 8.26791 19.024 8.93652 19.024H14.4485C15.1171 19.024 15.6715 18.496 15.6715 17.84C15.6715 17.184 15.1171 16.64 14.4485 16.64Z" fill="#BDBDBD"/>
<path d="M26.5359 12.9056C25.1954 12.9104 23.6152 12.9056 22.4786 12.8944C20.675 12.8944 19.1894 11.4368 19.1894 9.6672V5.4496C19.1894 4.76 20.0423 4.4176 20.5299 4.9152C21.4125 5.81562 22.6254 7.05335 23.8327 8.2854C25.0368 9.51412 26.2354 10.7372 27.0953 11.6144C27.5714 12.0992 27.2225 12.904 26.5359 12.9056Z" fill="#BDBDBD"/>
<circle cx="24" cy="8" r="8" fill="white"/>
<path fill-rule="evenodd" clip-rule="evenodd" d="M24 16C19.584 16 16 12.408 16 8C16 3.584 19.584 0 24 0C28.408 0 32 3.584 32 8C32 12.408 28.408 16 24 16ZM27.2003 6.41598C26.9603 6.18398 26.5843 6.18398 26.3523 6.42398L24.0003 8.78398L21.6483 6.42398C21.4163 6.18398 21.0323 6.18398 20.8003 6.41598C20.5603 6.65598 20.5603 7.03198 20.8003 7.26398L23.5763 10.056C23.6883 10.168 23.8403 10.232 24.0003 10.232C24.1603 10.232 24.3123 10.168 24.4243 10.056L27.2003 7.26398C27.3203 7.15198 27.3763 6.99998 27.3763 6.84798C27.3763 6.68798 27.3203 6.53598 27.2003 6.41598Z" fill="#4993DD"/>
</svg>
