<svg width="23" height="23" viewBox="0 0 23 23" fill="none" xmlns="http://www.w3.org/2000/svg">
<circle cx="11.5" cy="11.5" r="11" fill="#F9F9F9" stroke="#BDBDBD"/>
<path d="M11.4999 13.4167C12.5585 13.4167 13.4166 12.5585 13.4166 11.5C13.4166 10.4415 12.5585 9.58333 11.4999 9.58333C10.4414 9.58333 9.58325 10.4415 9.58325 11.5C9.58325 12.5585 10.4414 13.4167 11.4999 13.4167Z" stroke="#256DF6" stroke-miterlimit="10" stroke-linecap="round" stroke-linejoin="round"/>
<path d="M5.11108 12.0622V10.9378C5.11108 10.2733 5.65414 9.72389 6.32497 9.72389C7.48136 9.72389 7.95414 8.90611 7.37275 7.90305C7.04053 7.32805 7.23858 6.58055 7.81997 6.24833L8.92525 5.61583C9.42997 5.31555 10.0816 5.49444 10.3819 5.99917L10.4522 6.12055C11.0272 7.12361 11.9728 7.12361 12.5541 6.12055L12.6244 5.99917C12.9247 5.49444 13.5764 5.31555 14.0811 5.61583L15.1864 6.24833C15.7678 6.58055 15.9658 7.32805 15.6336 7.90305C15.0522 8.90611 15.525 9.72389 16.6814 9.72389C17.3458 9.72389 17.8953 10.2669 17.8953 10.9378V12.0622C17.8953 12.7267 17.3522 13.2761 16.6814 13.2761C15.525 13.2761 15.0522 14.0939 15.6336 15.0969C15.9658 15.6783 15.7678 16.4194 15.1864 16.7517L14.0811 17.3842C13.5764 17.6844 12.9247 17.5056 12.6244 17.0008L12.5541 16.8794C11.9791 15.8764 11.0336 15.8764 10.4522 16.8794L10.3819 17.0008C10.0816 17.5056 9.42997 17.6844 8.92525 17.3842L7.81997 16.7517C7.23858 16.4194 7.04053 15.6719 7.37275 15.0969C7.95414 14.0939 7.48136 13.2761 6.32497 13.2761C5.65414 13.2761 5.11108 12.7267 5.11108 12.0622Z" stroke="#256DF6" stroke-miterlimit="10" stroke-linecap="round" stroke-linejoin="round"/>
</svg>
