<svg width="25" height="26" viewBox="0 0 25 26" fill="none" xmlns="http://www.w3.org/2000/svg">
<path d="M24.2578 6.64844C22.7344 6.02344 21.2109 5.75 19.6875 5.75C14.8828 5.75 10.0781 8.21094 5.27344 8.21094C4.0625 8.21094 2.85156 8.05469 1.64062 7.66406C1.52344 7.625 1.36719 7.58594 1.25 7.58594C0.585938 7.58594 0 8.13281 0 8.83594V21.2578C0 21.7266 0.273438 22.1953 0.703125 22.3906C2.22656 23.0156 3.75 23.25 5.27344 23.25C10.0781 23.25 14.8828 20.8281 19.6875 20.8281C20.8984 20.8281 22.1094 20.9844 23.3203 21.375C23.4375 21.4141 23.5938 21.4141 23.7109 21.4141C24.375 21.4141 25 20.9062 25 20.2031V7.78125C25 7.3125 24.6875 6.84375 24.2578 6.64844ZM1.875 9.69531C2.65625 9.89062 3.47656 9.96875 4.29688 10.0469C4.0625 11.1797 3.08594 12.0391 1.875 12.0391V9.69531ZM1.875 20.8281V18.9531C3.20312 18.9531 4.29688 20.0078 4.33594 21.3359C3.47656 21.2969 2.65625 21.1016 1.875 20.8281ZM12.5 18.25C10.7422 18.25 9.375 16.6094 9.375 14.5C9.375 12.4297 10.7422 10.75 12.5 10.75C14.2188 10.75 15.625 12.4297 15.625 14.5C15.625 16.6094 14.2188 18.25 12.5 18.25ZM23.125 19.3438C22.4219 19.1875 21.7188 19.0703 20.9766 19.0312C21.2109 18.0156 22.0703 17.2344 23.125 17.1172V19.3438ZM23.125 10.125C21.9141 9.96875 20.9766 8.95312 20.9375 7.74219C21.6797 7.82031 22.4219 7.97656 23.125 8.21094V10.125Z" fill="#256DF6"/>
<path d="M24.0664 5.60547C23.8711 5.41016 23.5781 5.42969 23.3828 5.60547L21.1562 7.96875V2.34375C21.1562 2.08984 20.9414 1.875 20.6875 1.875H20.0625C19.7891 1.875 19.5938 2.08984 19.5938 2.34375V7.96875L17.3477 5.60547C17.1523 5.42969 16.8594 5.41016 16.6641 5.60547L16.2344 6.03516C16.0586 6.21094 16.0586 6.52344 16.2344 6.69922L20.043 10.4883C20.2188 10.6836 20.5117 10.6836 20.707 10.4883L24.4961 6.69922C24.6719 6.52344 24.6719 6.23047 24.4961 6.03516L24.0664 5.60547Z" fill="#256DF6"/>
<path d="M23.3828 5.60547L22.0449 4.11888L21.9836 4.17401L21.9271 4.23399L23.3828 5.60547ZM21.1562 7.96875H19.1562V13.0081L22.6119 9.34023L21.1562 7.96875ZM19.5938 7.96875L18.1441 9.34656L21.5938 12.9762V7.96875H19.5938ZM17.3477 5.60547L18.7974 4.22765L18.7436 4.17109L18.6856 4.11888L17.3477 5.60547ZM16.2344 6.69922L14.8202 8.11344L14.8238 8.11706L16.2344 6.69922ZM20.043 10.4883L21.5296 9.15035L21.4927 9.10935L21.4535 9.07044L20.043 10.4883ZM24.4961 6.03516L25.9827 4.69723L25.9475 4.65813L25.9103 4.62094L24.4961 6.03516ZM25.4806 4.19126C24.4158 3.12644 22.9013 3.34807 22.0449 4.11888L24.7207 7.09206C24.2549 7.51131 23.3264 7.69387 22.6522 7.01968L25.4806 4.19126ZM21.9271 4.23399L19.7006 6.59727L22.6119 9.34023L24.8385 6.97695L21.9271 4.23399ZM23.1562 7.96875V2.34375H19.1562V7.96875H23.1562ZM23.1562 2.34375C23.1562 0.985274 22.046 -0.125 20.6875 -0.125V3.875C19.8368 3.875 19.1562 3.19441 19.1562 2.34375H23.1562ZM20.6875 -0.125H20.0625V3.875H20.6875V-0.125ZM20.0625 -0.125C18.6302 -0.125 17.5938 1.04032 17.5938 2.34375H21.5938C21.5938 3.13937 20.9479 3.875 20.0625 3.875V-0.125ZM17.5938 2.34375V7.96875H21.5938V2.34375H17.5938ZM21.0434 6.59094L18.7974 4.22765L15.898 6.98328L18.1441 9.34656L21.0434 6.59094ZM18.6856 4.11888C17.8291 3.34807 16.3147 3.12644 15.2498 4.19126L18.0783 7.01968C17.4041 7.69387 16.4756 7.51131 16.0097 7.09206L18.6856 4.11888ZM15.2498 4.19126L14.8202 4.62094L17.6486 7.44937L18.0783 7.01968L15.2498 4.19126ZM14.8202 4.62094C13.8633 5.57777 13.8633 7.1566 14.8202 8.11343L17.6486 5.28501C17.9821 5.61853 18.1025 6.02816 18.1025 6.36719C18.1025 6.70621 17.9821 7.11585 17.6486 7.44937L14.8202 4.62094ZM14.8238 8.11706L18.6324 11.9061L21.4535 9.07044L17.6449 5.28137L14.8238 8.11706ZM18.5564 11.8262C19.566 12.948 21.1886 12.8351 22.1212 11.9025L19.2928 9.07407C19.8348 8.53205 20.8715 8.41919 21.5296 9.15035L18.5564 11.8262ZM22.1212 11.9025L25.9103 8.11343L23.0819 5.28501L19.2928 9.07407L22.1212 11.9025ZM25.9103 8.11343C26.9056 7.1181 26.8045 5.61037 25.9827 4.69723L23.0095 7.37309C22.5392 6.85056 22.4381 5.92877 23.0819 5.28501L25.9103 8.11343ZM25.9103 4.62094L25.4806 4.19126L22.6522 7.01968L23.0819 7.44937L25.9103 4.62094Z" fill="#EFF6FF"/>
</svg>
