<svg width="19" height="19" viewBox="0 0 19 19" fill="none" xmlns="http://www.w3.org/2000/svg">
<g clip-path="url(#clip0_7_2189)">
<path d="M7.91667 4.75026H18.2083C18.4183 4.75026 18.6197 4.66685 18.7681 4.51839C18.9166 4.36992 19 4.16856 19 3.9586C19 3.74863 18.9166 3.54727 18.7681 3.3988C18.6197 3.25034 18.4183 3.16693 18.2083 3.16693H7.91667C7.7067 3.16693 7.50534 3.25034 7.35687 3.3988C7.20841 3.54727 7.125 3.74863 7.125 3.9586C7.125 4.16856 7.20841 4.36992 7.35687 4.51839C7.50534 4.66685 7.7067 4.75026 7.91667 4.75026Z" fill="#BDBDBD"/>
<path d="M18.2083 8.70807H7.91667C7.7067 8.70807 7.50534 8.79148 7.35687 8.93994C7.20841 9.08841 7.125 9.28978 7.125 9.49974C7.125 9.7097 7.20841 9.91107 7.35687 10.0595C7.50534 10.208 7.7067 10.2914 7.91667 10.2914H18.2083C18.4183 10.2914 18.6197 10.208 18.7681 10.0595C18.9166 9.91107 19 9.7097 19 9.49974C19 9.28978 18.9166 9.08841 18.7681 8.93994C18.6197 8.79148 18.4183 8.70807 18.2083 8.70807Z" fill="#BDBDBD"/>
<path d="M18.2083 14.25H7.91667C7.7067 14.25 7.50534 14.3334 7.35687 14.4819C7.20841 14.6303 7.125 14.8317 7.125 15.0417C7.125 15.2516 7.20841 15.453 7.35687 15.6015C7.50534 15.7499 7.7067 15.8333 7.91667 15.8333H18.2083C18.4183 15.8333 18.6197 15.7499 18.7681 15.6015C18.9166 15.453 19 15.2516 19 15.0417C19 14.8317 18.9166 14.6303 18.7681 14.4819C18.6197 14.3334 18.4183 14.25 18.2083 14.25Z" fill="#BDBDBD"/>
<path d="M4.81861 4.75025C4.89693 4.75023 4.97349 4.72698 5.03859 4.68343C5.1037 4.63989 5.15442 4.57801 5.18434 4.50562C5.21426 4.43324 5.22203 4.35361 5.20667 4.2768C5.19132 4.2 5.15352 4.12948 5.09807 4.07416L3.1664 2.14329C3.01794 1.99487 2.81661 1.9115 2.60669 1.9115C2.39677 1.9115 2.19544 1.99487 2.04698 2.14329L0.116107 4.07416C0.0606535 4.12948 0.0228564 4.2 0.00749924 4.2768C-0.00785789 4.35361 -8.46277e-05 4.43324 0.0298352 4.50562C0.059755 4.57801 0.110476 4.63989 0.17558 4.68343C0.240683 4.72698 0.317241 4.75023 0.395565 4.75025H1.81582V14.2502H0.395565C0.317174 14.2501 0.240506 14.2732 0.175281 14.3167C0.110057 14.3602 0.0592123 14.4221 0.0291943 14.4945C-0.000823792 14.5669 -0.00866375 14.6466 0.00666829 14.7235C0.0220003 14.8004 0.0598139 14.871 0.115315 14.9263L2.04698 16.8572C2.19544 17.0056 2.39677 17.089 2.60669 17.089C2.81661 17.089 3.01794 17.0056 3.1664 16.8572L5.09807 14.9263C5.15352 14.871 5.19132 14.8005 5.20667 14.7237C5.22203 14.6469 5.21426 14.5673 5.18434 14.4949C5.15442 14.4225 5.1037 14.3606 5.03859 14.3171C4.97349 14.2735 4.89693 14.2503 4.81861 14.2502H3.39915V4.75025H4.81861Z" fill="#BDBDBD"/>
</g>
<defs>
<clipPath id="clip0_7_2189">
<rect width="19" height="19" fill="white"/>
</clipPath>
</defs>
</svg>
