<svg width="30" height="30" viewBox="0 0 30 30" fill="none" xmlns="http://www.w3.org/2000/svg">
<g clip-path="url(#clip0_1888_4971)">
<path d="M17 14.2559C17.6903 14.2559 18.25 13.6962 18.25 13.0059C18.25 12.3155 17.6903 11.7559 17 11.7559C16.3096 11.7559 15.75 12.3155 15.75 13.0059C15.75 13.6962 16.3096 14.2559 17 14.2559Z" fill="#D9D9D9"/>
<path d="M20.5 17C20.3674 17 20.2402 17.0527 20.1464 17.1464C20.0527 17.2402 20 17.3674 20 17.5V18.5C20 18.8978 19.8419 19.2794 19.5606 19.5607C19.2793 19.842 18.8978 20 18.5 20H17.5C17.3674 20 17.2402 20.0527 17.1464 20.1464C17.0527 20.2402 17 20.3674 17 20.5C17 20.6326 17.0527 20.7598 17.1464 20.8536C17.2402 20.9473 17.3674 21 17.5 21H18.5C19.1628 20.9992 19.7982 20.7356 20.2669 20.2669C20.7355 19.7982 20.9992 19.1628 21 18.5V17.5C21 17.3674 20.9473 17.2402 20.8535 17.1464C20.7598 17.0527 20.6326 17 20.5 17Z" fill="#D9D9D9"/>
<path d="M9.49998 13C9.63259 13 9.75977 12.9473 9.85354 12.8536C9.94731 12.7598 9.99998 12.6326 9.99998 12.5V11.5C9.99998 11.1022 10.158 10.7206 10.4393 10.4393C10.7206 10.158 11.1022 10 11.5 10H12.5C12.6326 10 12.7598 9.94732 12.8535 9.85355C12.9473 9.75979 13 9.63261 13 9.5C13 9.36739 12.9473 9.24021 12.8535 9.14645C12.7598 9.05268 12.6326 9 12.5 9H11.5C10.8372 9.00079 10.2018 9.26444 9.73309 9.73311C9.26443 10.2018 9.00078 10.8372 8.99998 11.5V12.5C8.99998 12.6326 9.05266 12.7598 9.14643 12.8536C9.2402 12.9473 9.36738 13 9.49998 13Z" fill="#D9D9D9"/>
<path d="M12.5 20H11.5C11.1022 20 10.7206 19.842 10.4393 19.5607C10.158 19.2794 9.99998 18.8978 9.99998 18.5V17.5C9.99998 17.3674 9.94731 17.2402 9.85354 17.1464C9.75977 17.0527 9.63259 17 9.49998 17C9.36738 17 9.2402 17.0527 9.14643 17.1464C9.05266 17.2402 8.99998 17.3674 8.99998 17.5V18.5C9.00078 19.1628 9.26443 19.7982 9.73309 20.2669C10.2018 20.7356 10.8372 20.9992 11.5 21H12.5C12.6326 21 12.7598 20.9473 12.8535 20.8536C12.9473 20.7598 13 20.6326 13 20.5C13 20.3674 12.9473 20.2402 12.8535 20.1464C12.7598 20.0527 12.6326 20 12.5 20Z" fill="#D9D9D9"/>
<path d="M18.5 9H17.5C17.3674 9 17.2402 9.05268 17.1464 9.14645C17.0527 9.24021 17 9.36739 17 9.5C17 9.63261 17.0527 9.75979 17.1464 9.85355C17.2402 9.94732 17.3674 10 17.5 10H18.5C18.8978 10 19.2793 10.158 19.5606 10.4393C19.8419 10.7206 20 11.1022 20 11.5V12.5C20 12.6326 20.0527 12.7598 20.1464 12.8536C20.2402 12.9473 20.3674 13 20.5 13C20.6326 13 20.7598 12.9473 20.8535 12.8536C20.9473 12.7598 21 12.6326 21 12.5V11.5C20.9992 10.8372 20.7355 10.2018 20.2669 9.73311C19.7982 9.26444 19.1628 9.00079 18.5 9V9Z" fill="#D9D9D9"/>
<path d="M18.3535 17.6462L14.5605 13.8532C14.2792 13.572 13.8977 13.4141 13.5 13.4141C13.1022 13.4141 12.7208 13.572 12.4395 13.8532L11.293 14.9997C11.1054 15.1872 11 15.4415 11 15.7067V16.9997C11 17.3976 11.158 17.7791 11.4393 18.0604C11.7206 18.3417 12.1022 18.4997 12.5 18.4997H18C18.0989 18.4997 18.1955 18.4704 18.2777 18.4154C18.3599 18.3605 18.424 18.2824 18.4618 18.1911C18.4997 18.0997 18.5096 17.9992 18.4903 17.9022C18.471 17.8052 18.4234 17.7162 18.3535 17.6462Z" fill="#D9D9D9"/>
</g>
<rect x="0.5" y="0.5" width="29" height="29" rx="7.5" stroke="#D9D9D9"/>
<defs>
<clipPath id="clip0_1888_4971">
<rect width="12" height="12" fill="white" transform="translate(8.99998 9)"/>
</clipPath>
</defs>
</svg>
