<svg width="200" height="9" viewBox="0 0 200 9" fill="none" xmlns="http://www.w3.org/2000/svg">
<path fill-rule="evenodd" clip-rule="evenodd" d="M4.57764e-05 0.536133H0V8.53613H12.5003H37.5003H62.5003H87.5003H112.5H137.5H162.5H187.5H200V0.541814C199.615 5.00083 194.166 8.53613 187.5 8.53613C180.833 8.53613 175.383 4.99916 175 0.538669C174.617 4.99916 169.167 8.53613 162.5 8.53613C155.833 8.53613 150.383 4.99916 150 0.538658C149.617 4.99916 144.167 8.53613 137.5 8.53613C130.833 8.53613 125.383 4.99916 125 0.538658C124.617 4.99916 119.167 8.53613 112.5 8.53613C105.833 8.53613 100.383 4.99916 100 0.538658C99.6172 4.99916 94.1672 8.53613 87.5003 8.53613C80.8333 8.53613 75.3834 4.99916 75.0003 0.538658C74.6172 4.99916 69.1672 8.53613 62.5003 8.53613C55.8334 8.53613 50.3834 4.99918 50.0003 0.538702C49.6171 4.99918 44.1672 8.53613 37.5003 8.53613C30.8334 8.53613 25.3834 4.99918 25.0003 0.538702C24.6171 4.99918 19.1672 8.53613 12.5003 8.53613C5.83208 8.53613 0.381302 4.99782 4.57764e-05 0.536133Z" fill="white"/>
</svg>
