<svg width="25" height="26" viewBox="0 0 25 26" fill="none" xmlns="http://www.w3.org/2000/svg">
<path d="M24.2578 6.64844C22.7344 6.02344 21.2109 5.75 19.6875 5.75C14.8828 5.75 10.0781 8.21094 5.27344 8.21094C4.0625 8.21094 2.85156 8.05469 1.64062 7.66406C1.52344 7.625 1.36719 7.58594 1.25 7.58594C0.585938 7.58594 0 8.13281 0 8.83594V21.2578C0 21.7266 0.273438 22.1953 0.703125 22.3906C2.22656 23.0156 3.75 23.25 5.27344 23.25C10.0781 23.25 14.8828 20.8281 19.6875 20.8281C20.8984 20.8281 22.1094 20.9844 23.3203 21.375C23.4375 21.4141 23.5938 21.4141 23.7109 21.4141C24.375 21.4141 25 20.9062 25 20.2031V7.78125C25 7.3125 24.6875 6.84375 24.2578 6.64844ZM1.875 9.69531C2.65625 9.89062 3.47656 9.96875 4.29688 10.0469C4.0625 11.1797 3.08594 12.0391 1.875 12.0391V9.69531ZM1.875 20.8281V18.9531C3.20312 18.9531 4.29688 20.0078 4.33594 21.3359C3.47656 21.2969 2.65625 21.1016 1.875 20.8281ZM12.5 18.25C10.7422 18.25 9.375 16.6094 9.375 14.5C9.375 12.4297 10.7422 10.75 12.5 10.75C14.2188 10.75 15.625 12.4297 15.625 14.5C15.625 16.6094 14.2188 18.25 12.5 18.25ZM23.125 19.3438C22.4219 19.1875 21.7188 19.0703 20.9766 19.0312C21.2109 18.0156 22.0703 17.2344 23.125 17.1172V19.3438ZM23.125 10.125C21.9141 9.96875 20.9766 8.95312 20.9375 7.74219C21.6797 7.82031 22.4219 7.97656 23.125 8.21094V10.125Z" fill="#256DF6"/>
<path d="M24.0664 6.39453C23.8711 6.58984 23.5781 6.57031 23.3828 6.39453L21.1562 4.03125V9.65625C21.1562 9.91016 20.9414 10.125 20.6875 10.125H20.0625C19.7891 10.125 19.5938 9.91016 19.5938 9.65625V4.03125L17.3477 6.39453C17.1523 6.57031 16.8594 6.58984 16.6641 6.39453L16.2344 5.96484C16.0586 5.78906 16.0586 5.47656 16.2344 5.30078L20.043 1.51172C20.2188 1.31641 20.5117 1.31641 20.707 1.51172L24.4961 5.30078C24.6719 5.47656 24.6719 5.76953 24.4961 5.96484L24.0664 6.39453Z" fill="#256DF6"/>
<path d="M23.3828 6.39453L22.0449 7.88112L21.9836 7.82599L21.9271 7.76601L23.3828 6.39453ZM21.1562 4.03125H19.1562V-1.00811L22.6119 2.65977L21.1562 4.03125ZM19.5938 4.03125L18.1441 2.65344L21.5938 -0.976248V4.03125H19.5938ZM17.3477 6.39453L18.7974 7.77235L18.7436 7.82891L18.6856 7.88112L17.3477 6.39453ZM16.2344 5.30078L14.8202 3.88656L14.8238 3.88294L16.2344 5.30078ZM20.043 1.51172L21.5296 2.84965L21.4927 2.89065L21.4535 2.92956L20.043 1.51172ZM24.4961 5.96484L25.9827 7.30277L25.9475 7.34187L25.9103 7.37906L24.4961 5.96484ZM25.4806 7.80874C24.4158 8.87356 22.9013 8.65193 22.0449 7.88112L24.7207 4.90794C24.2549 4.48869 23.3264 4.30613 22.6522 4.98032L25.4806 7.80874ZM21.9271 7.76601L19.7006 5.40273L22.6119 2.65977L24.8385 5.02305L21.9271 7.76601ZM23.1562 4.03125V9.65625H19.1562V4.03125H23.1562ZM23.1562 9.65625C23.1562 11.0147 22.046 12.125 20.6875 12.125V8.125C19.8368 8.125 19.1562 8.80559 19.1562 9.65625H23.1562ZM20.6875 12.125H20.0625V8.125H20.6875V12.125ZM20.0625 12.125C18.6302 12.125 17.5938 10.9597 17.5938 9.65625H21.5938C21.5938 8.86063 20.9479 8.125 20.0625 8.125V12.125ZM17.5938 9.65625V4.03125H21.5938V9.65625H17.5938ZM21.0434 5.40906L18.7974 7.77235L15.898 5.01672L18.1441 2.65344L21.0434 5.40906ZM18.6856 7.88112C17.8291 8.65193 16.3147 8.87356 15.2498 7.80874L18.0783 4.98032C17.4041 4.30613 16.4756 4.48869 16.0097 4.90794L18.6856 7.88112ZM15.2498 7.80874L14.8202 7.37906L17.6486 4.55063L18.0783 4.98032L15.2498 7.80874ZM14.8202 7.37906C13.8633 6.42223 13.8633 4.8434 14.8202 3.88657L17.6486 6.71499C17.9821 6.38147 18.1025 5.97184 18.1025 5.63281C18.1025 5.29379 17.9821 4.88415 17.6486 4.55063L14.8202 7.37906ZM14.8238 3.88294L18.6324 0.093874L21.4535 2.92956L17.6449 6.71863L14.8238 3.88294ZM18.5564 0.173789C19.566 -0.948002 21.1886 -0.835138 22.1212 0.0975056L19.2928 2.92593C19.8348 3.46795 20.8715 3.58081 21.5296 2.84965L18.5564 0.173789ZM22.1212 0.0975056L25.9103 3.88657L23.0819 6.71499L19.2928 2.92593L22.1212 0.0975056ZM25.9103 3.88657C26.9056 4.8819 26.8045 6.38963 25.9827 7.30277L23.0095 4.62691C22.5392 5.14944 22.4381 6.07123 23.0819 6.71499L25.9103 3.88657ZM25.9103 7.37906L25.4806 7.80874L22.6522 4.98032L23.0819 4.55063L25.9103 7.37906Z" fill="#EFF6FF"/>
</svg>
