<svg width="16" height="16" viewBox="0 0 16 16" fill="none" xmlns="http://www.w3.org/2000/svg">
<path d="M8 0C12.4182 0 16 3.58182 16 8C16 12.4182 12.4182 16 8 16C3.58182 16 0 12.4182 0 8C0 3.58182 3.58182 0 8 0ZM11.8833 5.63127C12.1018 5.29418 12.0055 4.84364 11.6684 4.62545C11.3302 4.40727 10.8804 4.50327 10.6622 4.84036L7.13164 10.2898L5.27346 8.17745C5.00836 7.876 4.54836 7.84618 4.24691 8.112C3.94546 8.37709 3.916 8.83673 4.18109 9.13855L6.67382 11.9716C6.81273 12.1291 7.012 12.2185 7.22 12.2185C7.23782 12.2185 7.25564 12.2178 7.27309 12.2167C7.50036 12.2 7.70618 12.0778 7.83018 11.8869L11.8833 5.63127Z" fill="#6FCF97"/>
</svg>
