<svg width="16" height="16" viewBox="0 0 16 16" fill="none" xmlns="http://www.w3.org/2000/svg">
<path d="M8 0C12.4182 0 16 3.58182 16 8C16 12.4182 12.4182 16 8 16C3.58182 16 0 12.4182 0 8C0 3.58182 3.58182 0 8 0ZM8.72727 11.6364C8.72727 11.4178 8.72727 8.21855 8.72727 8C8.72727 7.59855 8.40182 7.27273 8 7.27273C7.59818 7.27273 7.27273 7.59855 7.27273 8C7.27273 8.21855 7.27273 11.4178 7.27273 11.6364C7.27273 12.0378 7.59818 12.3636 8 12.3636C8.40182 12.3636 8.72727 12.0378 8.72727 11.6364ZM8 6.18182C8.60255 6.18182 9.09091 5.69345 9.09091 5.09091C9.09091 4.48836 8.60255 4 8 4C7.39745 4 6.90909 4.48836 6.90909 5.09091C6.90909 5.69345 7.39745 6.18182 8 6.18182Z" fill="#F2C94C"/>
</svg>
