<svg width="158" height="120" viewBox="0 0 158 120" fill="none" xmlns="http://www.w3.org/2000/svg">
<path d="M149.011 26.0509H9.00793V115.759H149.011V26.0509Z" fill="#E4EDEB"/>
<path d="M151.216 23.8454H6.78442V26.0509H151.216V23.8454Z" fill="#A0A7A6"/>
<path d="M153.933 20.3204H4.04785V23.8266H153.933V20.3204Z" fill="#E4EDEB"/>
<path d="M155.967 15.476H2.03345V20.2639H155.967V15.476Z" fill="#E4EDEB"/>
<path d="M149.467 101.338H5.03613V115.759H149.467V101.338Z" fill="#AD5747"/>
<path d="M155.967 115.495H2.03345V120H155.967V115.495Z" fill="#252429"/>
<path d="M143.291 7.57776H119.042V15.476H143.291V7.57776Z" fill="#E4EDEB"/>
<path d="M9.00794 26.0509L0 49.0858H158L148.992 26.0509H9.00794Z" fill="white"/>
<path d="M0 49.0858H7.98172L16.0585 26.0509H9.00794L0 49.0858Z" fill="#F36C35"/>
<path d="M16.6666 49.0858H24.6483L30.8247 26.0509H23.7742L16.6666 49.0858Z" fill="#F36C35"/>
<path d="M33.3331 49.0858H41.3148L45.6098 26.0509H38.5403L33.3331 49.0858Z" fill="#F36C35"/>
<path d="M49.9998 49.0858H57.9815L60.376 26.0509H53.3065L49.9998 49.0858Z" fill="#F36C35"/>
<path d="M66.6853 49.0858H74.648L75.1421 26.0509H68.0726L66.6853 49.0858Z" fill="#F36C35"/>
<path d="M82.8578 26.0509L83.3519 49.0858H91.3146L89.9083 26.0509H82.8578Z" fill="#F36C35"/>
<path d="M97.624 26.0509L100.019 49.0858H107.981L104.694 26.0509H97.624Z" fill="#F36C35"/>
<path d="M112.39 26.0509L116.685 49.0858H124.667L119.46 26.0509H112.39Z" fill="#F36C35"/>
<path d="M127.156 26.0509L133.352 49.0858H141.333L134.226 26.0509H127.156Z" fill="#F36C35"/>
<path d="M141.923 26.0509L150.018 49.0858H158L148.992 26.0509H141.923Z" fill="#F36C35"/>
<path d="M157.962 49.0858H0V55.4571H157.962V49.0858Z" fill="#E4EDEB"/>
<path d="M7.96271 49.0858H0V55.4571H7.96271V49.0858Z" fill="#DC602D"/>
<path d="M24.6483 49.0858H16.6855V55.4571H24.6483V49.0858Z" fill="#DC602D"/>
<path d="M41.3339 49.0858H33.3522V55.4571H41.3339V49.0858Z" fill="#DC602D"/>
<path d="M58.0005 49.0858H50.0188V55.4571H58.0005V49.0858Z" fill="#DC602D"/>
<path d="M74.648 49.0858H66.6853V55.4571H74.648V49.0858Z" fill="#DC602D"/>
<path d="M91.3146 49.0858H83.3519V55.4571H91.3146V49.0858Z" fill="#DC602D"/>
<path d="M108 49.0858H100.019V55.4571H108V49.0858Z" fill="#DC602D"/>
<path d="M124.667 49.0858H116.685V55.4571H124.667V49.0858Z" fill="#DC602D"/>
<path d="M141.314 49.0858H133.352V55.4571H141.314V49.0858Z" fill="#DC602D"/>
<path d="M157.981 49.0858H150.018V55.4571H157.981V49.0858Z" fill="#DC602D"/>
<g style="mix-blend-mode:overlay">
<path d="M79 50.2733C120.416 50.2733 153.99 49.7416 153.99 49.0858C153.99 48.4299 120.416 47.8982 79 47.8982C37.5841 47.8982 4.00989 48.4299 4.00989 49.0858C4.00989 49.7416 37.5841 50.2733 79 50.2733Z" fill="#FFB0FF"/>
</g>
<g style="mix-blend-mode:multiply">
<path d="M6.0813 33.5532C6.0813 33.5532 12.6757 32.4411 44.2415 31.1593C77.5367 29.8021 148.992 26.0509 148.992 26.0509H9.00793L6.0813 33.5532Z" fill="#E4EDEB"/>
</g>
<path d="M57.6014 58.0207H15.9824V97.2102H57.6014V58.0207Z" fill="#8D3B26"/>
<path d="M56.005 59.491H17.5787V95.6833H56.005V59.491Z" fill="#46676C"/>
<path d="M30.4636 59.5099H29.3613V95.7022H30.4636V59.5099Z" fill="#8D3B26"/>
<path d="M44.2415 59.5476H43.1393V95.7399H44.2415V59.5476Z" fill="#8D3B26"/>
<path style="mix-blend-mode:overlay" d="M52.9263 63.7323C54.9027 69.7832 56.005 95.6833 56.005 95.6833V59.491L44.2415 59.5476C44.2415 59.5476 51.9571 60.754 52.9263 63.7323Z" fill="url(#paint0_linear_619_5479)"/>
<path style="mix-blend-mode:overlay" d="M39.8895 63.7889C42.018 69.8398 43.2152 95.7399 43.2152 95.7399V59.5476L30.5205 59.6042C30.5205 59.6042 38.8443 60.8106 39.8895 63.7889Z" fill="url(#paint1_linear_619_5479)"/>
<path style="mix-blend-mode:overlay" d="M26.2637 63.7889C28.2591 69.8398 29.3803 95.7399 29.3803 95.7399V59.5476L17.4838 59.6042C17.4838 59.6042 25.2754 60.8106 26.2637 63.7889Z" fill="url(#paint2_linear_619_5479)"/>
<path d="M141.846 58.0207H100.228V97.2102H141.846V58.0207Z" fill="#8D3B26"/>
<path d="M140.231 59.4722H101.805V95.6645H140.231V59.4722Z" fill="#46676C"/>
<path d="M114.69 59.491H113.587V95.6833H114.69V59.491Z" fill="#8D3B26"/>
<path d="M128.468 59.5287H127.365V95.721H128.468V59.5287Z" fill="#8D3B26"/>
<path style="mix-blend-mode:overlay" d="M137.153 63.7135C139.129 69.7644 140.231 95.6645 140.231 95.6645V59.4722L128.468 59.5288C128.468 59.5288 136.183 60.7352 137.153 63.7135Z" fill="url(#paint3_linear_619_5479)"/>
<path style="mix-blend-mode:overlay" d="M124.116 63.77C126.244 69.8209 127.441 95.721 127.441 95.721V59.5287L114.747 59.5853C114.747 59.5853 123.07 60.7917 124.116 63.77Z" fill="url(#paint4_linear_619_5479)"/>
<path style="mix-blend-mode:overlay" d="M110.509 63.77C112.504 69.8209 113.625 95.721 113.625 95.721V59.5287L101.729 59.5853C101.729 59.5853 109.521 60.7917 110.509 63.77Z" fill="url(#paint5_linear_619_5479)"/>
<g style="mix-blend-mode:multiply">
<path d="M9.00793 84.2601C9.00793 84.2601 16.0014 71.2724 23.7551 68.4449C31.5088 65.6173 148.992 61.0745 148.992 61.0745V55.4571H9.00793V84.279V84.2601Z" fill="#E4EDEB"/>
</g>
<path style="mix-blend-mode:soft-light" d="M64.2339 101.338H5.03613V103.431H64.2339V101.338Z" fill="url(#paint6_linear_619_5479)"/>
<path style="mix-blend-mode:soft-light" d="M91.3146 61.0745H90.2694V114.477H91.3146V61.0745Z" fill="url(#paint7_linear_619_5479)"/>
<path style="mix-blend-mode:soft-light" d="M149.467 101.32H93.7662V103.412H149.467V101.32Z" fill="url(#paint8_linear_619_5479)"/>
<path d="M93.7851 58.2846H64.2338V115.759H93.7851V58.2846Z" fill="#A0A7A6"/>
<path d="M91.4856 61.0745H66.4952V114.477H91.4856V61.0745Z" fill="#8D3B26"/>
<g style="mix-blend-mode:multiply">
<path d="M88.9581 64.1847H69.4789V91.5363H88.9581V64.1847Z" fill="#C985D8"/>
</g>
<path d="M88.483 64.7314H69.4789V91.5551H88.483V64.7314Z" fill="#46676C"/>
<g style="mix-blend-mode:multiply">
<path d="M77.8027 94.8351H69.4789V110.141H77.8027V94.8351Z" fill="#C985D8"/>
</g>
<path d="M77.2516 95.3629H69.954V109.557H77.2516V95.3629Z" fill="#8D3B26"/>
<g style="mix-blend-mode:multiply">
<path d="M88.483 94.8351H80.1592V110.141H88.483V94.8351Z" fill="#C985D8"/>
</g>
<path style="mix-blend-mode:overlay" d="M83.5419 67.8417C86.7155 72.2903 88.4829 91.3289 88.4829 91.3289V64.7125L69.5739 64.7502C69.5739 64.7502 81.9645 65.6362 83.5229 67.8417H83.5419Z" fill="url(#paint9_linear_619_5479)"/>
<path d="M87.9698 95.4006H80.6722V109.595H87.9698V95.4006Z" fill="#8D3B26"/>
<g style="mix-blend-mode:soft-light">
<path d="M86.0694 96.9086C87.2857 99.2837 87.9889 109.482 87.9889 109.482V95.2498H80.6913C80.6913 95.2498 85.4803 95.7399 86.0884 96.9274L86.0694 96.9086Z" fill="#A68C73"/>
</g>
<g style="mix-blend-mode:soft-light">
<path d="M75.3321 97.0405C76.5484 99.4156 77.2516 109.614 77.2516 109.614V95.3817H69.954C69.954 95.3817 74.743 95.8718 75.3511 97.0594L75.3321 97.0405Z" fill="#A68C73"/>
</g>
<path d="M91.4857 114.496H65.8682V115.514H91.4857V114.496Z" fill="#7AD142"/>
<path d="M77.7456 71.7059L74.3629 76.852C74.2869 76.9651 74.3249 77.1159 74.4389 77.1725C74.4769 77.1913 74.5149 77.2102 74.572 77.2102C74.648 77.2102 74.724 77.1725 74.762 77.0971L77.8407 72.4034L81.6035 75.7022C81.6985 75.7776 81.8505 75.7776 81.9455 75.6833C82.0406 75.5891 82.0216 75.4383 81.9265 75.344L77.7646 71.6871L77.7456 71.7059Z" fill="#333333"/>
<path d="M85.0601 74.8983L72.375 77.4422L73.1998 81.4885L85.8849 78.9446L85.0601 74.8983Z" fill="#F3E300"/>
<path d="M75.5792 78.2469V79.0386C75.5982 79.2083 75.6172 79.3779 75.6172 79.5476C75.5412 79.3968 75.4841 79.2271 75.4081 79.0763L75.0661 78.3412L74.838 78.3789L74.8 79.1894C74.8 79.3591 74.8 79.5287 74.8 79.6984C74.743 79.5476 74.686 79.3779 74.629 79.2271L74.3439 78.4731L74.0588 78.5297L74.667 80L75.009 79.9434V79.0952C75.0471 78.9821 75.0471 78.8501 75.0471 78.737C75.0851 78.8501 75.1421 78.9632 75.1801 79.0763L75.5222 79.8492L75.8642 79.7738V78.1904L75.5982 78.2469H75.5792Z" fill="#252429"/>
<path d="M76.6244 79.3968L76.5294 78.9444L77.0805 78.8313L77.0425 78.6051L76.4914 78.7182L76.4154 78.3223L77.0615 78.2092L77.0235 77.9642L76.0923 78.1527L76.3964 79.6796L77.3466 79.491L77.3085 79.2648L76.6244 79.3968Z" fill="#252429"/>
<path d="M77.8977 79.1517L77.6317 77.8511L77.3656 77.9076L77.6697 79.4345L78.5819 79.2648L78.5439 79.0386L77.8977 79.1517Z" fill="#252429"/>
<path d="M79.3609 78.8878C79.0949 78.9444 78.8858 78.7559 78.8288 78.4166C78.7528 78.0773 78.9049 77.8322 79.1519 77.7757C79.2659 77.7568 79.3609 77.7757 79.456 77.8511L79.57 77.6626C79.456 77.5872 79.2849 77.5118 79.0949 77.5495C78.6958 77.6249 78.4488 77.983 78.5438 78.492C78.6388 79.0009 78.9999 79.2271 79.399 79.1517C79.589 79.114 79.741 79.0009 79.836 78.8313L79.646 78.6993C79.57 78.8124 79.494 78.8878 79.3609 78.9067V78.8878Z" fill="#252429"/>
<path d="M80.3682 77.3044C79.9691 77.3798 79.741 77.7191 79.836 78.2281C79.9311 78.7182 80.2731 78.9821 80.6722 78.9067C81.0713 78.8313 81.2994 78.4731 81.2043 77.9642C81.1093 77.4741 80.7673 77.229 80.3682 77.3044ZM80.6342 78.6616C80.3872 78.6993 80.1971 78.5108 80.1211 78.1715C80.0451 77.8322 80.1781 77.5872 80.4062 77.5495C80.6532 77.4929 80.8433 77.6814 80.9193 78.0207C80.9953 78.36 80.8813 78.6239 80.6342 78.6616Z" fill="#252429"/>
<path d="M82.4206 76.9274L82.2876 77.738L82.2496 78.0396L82.0975 77.7757L81.6794 77.0782L81.3754 77.1348L81.6794 78.6616L81.9265 78.6051L81.7935 77.9076C81.7745 77.7568 81.6984 77.5683 81.6604 77.4364L81.8505 77.7568L82.2496 78.3977H82.3826L82.5156 77.6249L82.5726 77.2479C82.5726 77.3987 82.6106 77.606 82.6296 77.738L82.7627 78.4354L83.0287 78.3789L82.7247 76.852L82.4206 76.9086V76.9274Z" fill="#252429"/>
<path d="M83.6559 78.0396L83.5609 77.5872L84.112 77.4929L84.074 77.2479L83.5229 77.361L83.4468 76.9651L84.093 76.852L84.055 76.607L83.1238 76.7955L83.4278 78.3223L84.378 78.1338L84.34 77.9076L83.6559 78.0396Z" fill="#252429"/>
<path style="mix-blend-mode:soft-light" d="M65.279 58.4354H64.2338V115.759H65.279V58.4354Z" fill="url(#paint10_linear_619_5479)"/>
<path style="mix-blend-mode:soft-light" d="M93.7662 58.4354H92.7209V115.759H93.7662V58.4354Z" fill="url(#paint11_linear_619_5479)"/>
<path style="mix-blend-mode:multiply" d="M64.2148 58.2846H62.9795V115.514H64.2148V58.2846Z" fill="url(#paint12_linear_619_5479)"/>
<path style="mix-blend-mode:multiply" d="M6.78442 26.0509L151.216 23.8454H6.78442V26.0509Z" fill="url(#paint13_linear_619_5479)"/>
<path style="mix-blend-mode:multiply" d="M4.0479 23.8454L153.952 20.2827H4.00989L4.0479 23.8454Z" fill="url(#paint14_linear_619_5479)"/>
<path d="M21.3226 6.0132H16.3435V15.476H21.3226V6.0132Z" fill="#A0A7A6"/>
<path d="M35.8227 6.0132H30.8436V15.476H35.8227V6.0132Z" fill="#A0A7A6"/>
<path d="M15.4124 4.44863L22.2728 4.46748L18.8711 0L15.4124 4.44863Z" fill="#A0A7A6"/>
<path d="M29.9125 4.44863L36.7539 4.46748L33.3522 0L29.9125 4.44863Z" fill="#A0A7A6"/>
<path style="mix-blend-mode:soft-light" d="M21.3416 6.0132H18.605V15.476H21.3416V6.0132Z" fill="url(#paint15_linear_619_5479)"/>
<path style="mix-blend-mode:soft-light" d="M35.8227 6.0132H33.2382V15.476H35.8227V6.0132Z" fill="url(#paint16_linear_619_5479)"/>
<path d="M16.5534 4.46748H16.3435V6.0132H16.5534V4.46748Z" fill="#A0A7A6"/>
<path d="M21.3045 4.46748H21.0946V6.0132H21.3045V4.46748Z" fill="#A0A7A6"/>
<path d="M31.0726 4.46748H30.8627V6.0132H31.0726V4.46748Z" fill="#A0A7A6"/>
<path d="M35.8046 4.46748H35.5947V6.0132H35.8046V4.46748Z" fill="#A0A7A6"/>
<path style="mix-blend-mode:multiply" d="M119.042 15.476H143.291L119.042 7.57776V15.476Z" fill="url(#paint17_linear_619_5479)"/>
<defs>
<linearGradient id="paint0_linear_619_5479" x1="44.2415" y1="77.5872" x2="56.005" y2="77.5872" gradientUnits="userSpaceOnUse">
<stop stop-color="#CCCCCC"/>
<stop offset="0.86" stop-color="#CCCCCC"/>
<stop offset="1" stop-color="#CCCCCC"/>
</linearGradient>
<linearGradient id="paint1_linear_619_5479" x1="30.5205" y1="77.6437" x2="43.2152" y2="77.6437" gradientUnits="userSpaceOnUse">
<stop stop-color="#CCCCCC"/>
<stop offset="0.86" stop-color="#CCCCCC"/>
<stop offset="1" stop-color="#CCCCCC"/>
</linearGradient>
<linearGradient id="paint2_linear_619_5479" x1="32.7821" y1="67.804" x2="49.6439" y2="49.7217" gradientUnits="userSpaceOnUse">
<stop stop-color="#CCCCCC"/>
<stop offset="1" stop-color="white"/>
</linearGradient>
<linearGradient id="paint3_linear_619_5479" x1="128.468" y1="77.5683" x2="140.231" y2="77.5683" gradientUnits="userSpaceOnUse">
<stop stop-color="#CCCCCC"/>
<stop offset="0.86" stop-color="#CCCCCC"/>
<stop offset="1" stop-color="#CCCCCC"/>
</linearGradient>
<linearGradient id="paint4_linear_619_5479" x1="114.747" y1="77.6249" x2="127.441" y2="77.6249" gradientUnits="userSpaceOnUse">
<stop stop-color="#CCCCCC"/>
<stop offset="0.86" stop-color="#CCCCCC"/>
<stop offset="1" stop-color="#CCCCCC"/>
</linearGradient>
<linearGradient id="paint5_linear_619_5479" x1="101.729" y1="77.6249" x2="113.606" y2="77.6249" gradientUnits="userSpaceOnUse">
<stop stop-color="#CCCCCC"/>
<stop offset="0.86" stop-color="#CCCCCC"/>
<stop offset="1" stop-color="#CCCCCC"/>
</linearGradient>
<linearGradient id="paint6_linear_619_5479" x1="34.6255" y1="103.28" x2="34.6255" y2="101.546" gradientUnits="userSpaceOnUse">
<stop stop-color="#B3B3B3"/>
<stop offset="0.18" stop-color="#C1C1C1"/>
<stop offset="1" stop-color="white"/>
</linearGradient>
<linearGradient id="paint7_linear_619_5479" x1="90.8015" y1="110.368" x2="90.8015" y2="66.3525" gradientUnits="userSpaceOnUse">
<stop stop-color="white"/>
<stop offset="0.5" stop-color="#C1C1C1"/>
<stop offset="1" stop-color="#808080"/>
</linearGradient>
<linearGradient id="paint8_linear_619_5479" x1="121.626" y1="103.242" x2="121.626" y2="101.527" gradientUnits="userSpaceOnUse">
<stop stop-color="#B3B3B3"/>
<stop offset="0.18" stop-color="#C1C1C1"/>
<stop offset="1" stop-color="white"/>
</linearGradient>
<linearGradient id="paint9_linear_619_5479" x1="69.5739" y1="78.0396" x2="88.4829" y2="78.0396" gradientUnits="userSpaceOnUse">
<stop stop-color="#CCCCCC"/>
<stop offset="0.86" stop-color="#CCCCCC"/>
<stop offset="1" stop-color="#CCCCCC"/>
</linearGradient>
<linearGradient id="paint10_linear_619_5479" x1="64.7469" y1="111.329" x2="64.7469" y2="64.0905" gradientUnits="userSpaceOnUse">
<stop stop-color="#808080"/>
<stop offset="0.5" stop-color="#C1C1C1"/>
<stop offset="1" stop-color="white"/>
</linearGradient>
<linearGradient id="paint11_linear_619_5479" x1="93.2341" y1="111.329" x2="93.2341" y2="64.0905" gradientUnits="userSpaceOnUse">
<stop stop-color="white"/>
<stop offset="0.5" stop-color="#C1C1C1"/>
<stop offset="1" stop-color="#808080"/>
</linearGradient>
<linearGradient id="paint12_linear_619_5479" x1="64.2528" y1="86.8992" x2="63.1505" y2="86.8992" gradientUnits="userSpaceOnUse">
<stop stop-color="#B3B3B3"/>
<stop offset="0.18" stop-color="#C1C1C1"/>
<stop offset="1" stop-color="white"/>
</linearGradient>
<linearGradient id="paint13_linear_619_5479" x1="79" y1="25.8812" x2="79" y2="24.0528" gradientUnits="userSpaceOnUse">
<stop stop-color="white"/>
<stop offset="1" stop-color="#CCCCCC"/>
</linearGradient>
<linearGradient id="paint14_linear_619_5479" x1="78.981" y1="23.5627" x2="78.981" y2="20.622" gradientUnits="userSpaceOnUse">
<stop stop-color="white"/>
<stop offset="1" stop-color="#CCCCCC"/>
</linearGradient>
<linearGradient id="paint15_linear_619_5479" x1="19.9733" y1="14.7597" x2="19.9733" y2="6.93686" gradientUnits="userSpaceOnUse">
<stop stop-color="white"/>
<stop offset="0.5" stop-color="#C1C1C1"/>
<stop offset="1" stop-color="#808080"/>
</linearGradient>
<linearGradient id="paint16_linear_619_5479" x1="34.5304" y1="14.7597" x2="34.5304" y2="6.93686" gradientUnits="userSpaceOnUse">
<stop stop-color="white"/>
<stop offset="0.5" stop-color="#C1C1C1"/>
<stop offset="1" stop-color="#808080"/>
</linearGradient>
<linearGradient id="paint17_linear_619_5479" x1="122.747" y1="20.0189" x2="129.005" y2="13.6155" gradientUnits="userSpaceOnUse">
<stop stop-color="#CCCCCC"/>
<stop offset="1" stop-color="white"/>
</linearGradient>
</defs>
</svg>
