<svg width="125" height="120" viewBox="0 0 125 120" fill="none" xmlns="http://www.w3.org/2000/svg">
<path d="M55.912 8.80994H46.8589V91.2687H55.912V8.80994Z" fill="#252429"/>
<path style="mix-blend-mode:multiply" d="M46.8589 26.4864L56.0807 15.4127H46.8589V26.4864Z" fill="url(#paint0_linear_619_6143)"/>
<path d="M71.2253 0H31.5454V15.4127H71.2253V0Z" fill="#747479"/>
<path d="M68.0953 2.50903H34.6758V9.58339H68.0953V2.50903Z" fill="#252429"/>
<path style="mix-blend-mode:soft-light" d="M31.5454 15.4127L70.9816 0H31.5454V15.4127Z" fill="url(#paint1_linear_619_6143)"/>
<path d="M37.9558 4.09369H36.625V8.09306H37.9558V4.09369Z" fill="#7AAB42"/>
<path d="M40.4485 4.09369H39.1177V8.09306H40.4485V4.09369Z" fill="#7AAB42"/>
<path d="M45.1345 4.09369H43.8037V8.09306H45.1345V4.09369Z" fill="#7AAB42"/>
<path d="M47.4773 4.09369H46.1465V8.09306H47.4773V4.09369Z" fill="#7AAB42"/>
<path d="M49.82 4.09369H48.4893V8.09306H49.82V4.09369Z" fill="#7AAB42"/>
<path d="M52.1633 4.09369H50.8325V8.09306H52.1633V4.09369Z" fill="#7AAB42"/>
<path d="M48.733 63.1221H5.62305V88.6464H48.733V63.1221Z" fill="#A0A7A6"/>
<path d="M45.3031 88.3446H8.75342V91.2687H45.3031V88.3446Z" fill="#252429"/>
<path d="M38.3678 73.7243H15.6694C15.0697 73.7243 14.6011 74.2147 14.6011 74.7996C14.6011 75.3844 15.0697 75.8749 15.6694 75.8749H38.3678C38.9675 75.8749 39.4361 75.3844 39.4361 74.7996C39.4361 74.2147 38.9675 73.7243 38.3678 73.7243Z" fill="#454044"/>
<path style="mix-blend-mode:multiply" d="M48.733 72.4037H5.62305V88.6464H48.733V72.4037Z" fill="url(#paint2_linear_619_6143)"/>
<path d="M60.9912 70.0267H73.3244V37.013H60.9912V70.0267ZM61.4598 37.4847H72.8558V69.5551H61.4598V37.5035V37.4847Z" fill="#C1B9C6"/>
<path d="M94.2046 77.252H82.9585V91.2498H94.2046V77.252Z" fill="#454044"/>
<path style="mix-blend-mode:multiply" d="M82.9585 88.3446L94.2046 77.252H82.9585V88.3446Z" fill="url(#paint3_linear_619_6143)"/>
<path d="M57.9551 85.8356L55.9121 91.2687H119.64L117.765 85.8356H57.9551Z" fill="#252429"/>
<path d="M57.9551 84.3829L55.9121 89.7972H119.64L117.765 84.3829H57.9551Z" fill="#A0A7A6"/>
<path d="M122.526 24.5244H54.6748V77.252H122.526V24.5244Z" fill="#A0A7A6"/>
<path d="M118.871 27.8258H57.6362V73.7243H118.871V27.8258Z" fill="#E4EDEB"/>
<path d="M72.856 70.0267H85.1891V37.013H72.856V70.0267ZM73.3245 37.4847H84.7206V69.5551H73.3245V37.5035V37.4847Z" fill="#C1B9C6"/>
<path d="M84.7393 70.0267H97.0724V37.013H84.7393V70.0267ZM85.2078 37.4847H96.6039V69.5551H85.2078V37.5035V37.4847Z" fill="#C1B9C6"/>
<path d="M116.978 33.2401H99.4155V69.8003H116.978V33.2401Z" fill="#C6CACA"/>
<path d="M96.8474 31.9195H61.2349V35.2209H96.8474V31.9195Z" fill="#C6CACA"/>
<path d="M96.8474 41.352H61.2349V43.5592H96.8474V41.352Z" fill="#8A88BF"/>
<path d="M57.6362 28.5804H118.459V73.7243H119.415V27.8258H57.6362V28.5804Z" fill="#747479"/>
<path style="mix-blend-mode:soft-light" d="M57.6362 73.7243L118.459 28.5804H57.6362V73.7243Z" fill="url(#paint4_linear_619_6143)"/>
<path d="M125 91.2687H0V120H125V91.2687Z" fill="#A0A7A6"/>
<path d="M116.509 95.7585H8.15332V116.302H116.509V95.7585Z" fill="#252429"/>
<path d="M115.816 96.5886H8.75342V115.491H115.816V96.5886Z" fill="#A0A7A6"/>
<path style="mix-blend-mode:soft-light" d="M125 91.1177H0V94.0795H125V91.1177Z" fill="url(#paint5_linear_619_6143)"/>
<path style="mix-blend-mode:soft-light" d="M115.816 96.5886H8.75342V108.002H115.816V96.5886Z" fill="url(#paint6_linear_619_6143)"/>
<g style="mix-blend-mode:multiply">
<path d="M61.4597 106.455C59.3042 106.455 57.561 108.209 57.561 110.379C57.561 112.548 59.3042 114.303 61.4597 114.303C63.6152 114.303 65.3583 112.548 65.3583 110.379C65.3583 108.209 63.6152 106.455 61.4597 106.455Z" fill="#A0A7A6"/>
</g>
<path d="M62.2844 105.625C60.1289 105.625 58.3857 107.379 58.3857 109.549C58.3857 111.718 60.1289 113.473 62.2844 113.473C64.4399 113.473 66.183 111.718 66.183 109.549C66.183 107.379 64.4399 105.625 62.2844 105.625Z" fill="#E4EDEB"/>
<path d="M62.6594 106.512H61.9097V111.247H62.6594V106.512Z" fill="#A0A7A6"/>
<path style="mix-blend-mode:multiply" d="M0 120H125L0 91.1177V120Z" fill="url(#paint7_linear_619_6143)"/>
<path d="M32.7638 74.0827H17.3941C16.7756 74.0827 16.2695 74.592 16.2695 75.2146V111.039C16.2695 111.605 16.7194 112.058 17.2817 112.058H32.6513C33.2136 112.058 33.6634 111.605 33.6634 111.039C33.6634 110.473 33.2136 110.02 32.6513 110.02H31.6391V75.8749C31.6391 75.8749 33.8884 75.8371 33.8884 75.2146C33.8884 74.592 33.3823 74.0827 32.7638 74.0827Z" fill="#E4EDEB"/>
<path d="M31.6392 110.907C31.6392 111.53 32.1452 112.039 32.7638 112.039C33.3823 112.039 33.8884 111.53 33.8884 110.907V105.587H31.6392V110.907Z" fill="#C9DAD8"/>
<g style="mix-blend-mode:soft-light">
<path d="M17.3941 74.0827C16.7756 74.0827 16.2695 74.592 16.2695 75.2146V111.039C16.2695 111.511 16.5882 111.907 17.0193 112.02V78.6291C17.0193 78.0066 17.5253 77.4973 18.1439 77.4973H31.6391C31.6391 77.4973 31.4517 75.4787 31.7141 74.7996C31.9953 74.0827 33.1199 74.0827 32.745 74.0827H17.3941Z" fill="url(#paint8_linear_619_6143)"/>
</g>
<path style="mix-blend-mode:multiply" d="M31.6392 105.587L31.6766 110.907C31.6766 111.53 32.1827 112.039 32.8013 112.039C33.2886 112.039 33.6822 111.737 33.8509 111.303C33.7009 111.398 32.7638 105.587 32.7638 105.587H31.6392Z" fill="url(#paint9_linear_619_6143)"/>
<path d="M32.7638 74.0827C32.1452 74.0827 31.6392 74.592 31.6392 75.2146V75.8749H33.8884V75.2146C33.8884 74.592 33.3823 74.0827 32.7638 74.0827Z" fill="#C9DAD8"/>
<path style="mix-blend-mode:multiply" d="M32.7638 74.0827C32.1452 74.0827 31.6392 74.592 31.6392 75.2146V75.8749H32.7638C32.7638 75.8749 33.6447 74.743 33.8134 74.8184C33.6635 74.3845 33.2511 74.0827 32.7638 74.0827Z" fill="url(#paint10_linear_619_6143)"/>
<path d="M26.8032 76.969H17.6938V77.5916H26.8032V76.969Z" fill="#A0A7A6"/>
<path d="M20.5616 79.2328H17.6938V79.8554H20.5616V79.2328Z" fill="#A0A7A6"/>
<path d="M26.8032 81.4966H17.6938V82.1192H26.8032V81.4966Z" fill="#A0A7A6"/>
<path d="M22.4359 83.7604H17.6938V84.383H22.4359V83.7604Z" fill="#A0A7A6"/>
<path d="M26.8032 86.0053H17.6938V86.6279H26.8032V86.0053Z" fill="#A0A7A6"/>
<path d="M20.5616 88.2691H17.6938V88.8917H20.5616V88.2691Z" fill="#A0A7A6"/>
<path d="M26.8032 90.5329H17.6938V91.1555H26.8032V90.5329Z" fill="#A0A7A6"/>
<path d="M22.2485 92.7967H17.6938V93.4193H22.2485V92.7967Z" fill="#A0A7A6"/>
<path d="M26.8032 95.0605H17.6938V95.6831H26.8032V95.0605Z" fill="#A0A7A6"/>
<path d="M20.5616 97.3243H17.6938V97.9469H20.5616V97.3243Z" fill="#A0A7A6"/>
<path d="M26.8032 99.5692H17.6938V100.192H26.8032V99.5692Z" fill="#A0A7A6"/>
<path d="M20.5616 101.833H17.6938V102.456H20.5616V101.833Z" fill="#A0A7A6"/>
<path d="M30.102 104.078H17.6938V104.436H30.102V104.078Z" fill="#A0A7A6"/>
<path d="M30.0834 76.6106H28.0591V79.2328H30.0834V76.6106Z" fill="#A0A7A6"/>
<path d="M30.0834 81.4966H28.0591V84.1188H30.0834V81.4966Z" fill="#A0A7A6"/>
<path d="M30.0834 86.0053H28.0591V88.6276H30.0834V86.0053Z" fill="#A0A7A6"/>
<path d="M30.0834 90.5329H28.0591V93.1552H30.0834V90.5329Z" fill="#A0A7A6"/>
<path d="M30.0834 95.0605H28.0591V97.6828H30.0834V95.0605Z" fill="#A0A7A6"/>
<path d="M30.0834 99.5692H28.0591V102.191H30.0834V99.5692Z" fill="#A0A7A6"/>
<path d="M30.0834 105.153H28.0591V107.776H30.0834V105.153Z" fill="#A0A7A6"/>
<path d="M17.769 106.361H18.2376V107.776H18.725V106.361H19.1935V105.964H17.769V106.361Z" fill="#A0A7A6"/>
<path d="M20.1306 105.927C19.6245 105.927 19.2871 106.266 19.2871 106.851C19.2871 107.436 19.6245 107.794 20.1306 107.794C20.6366 107.794 20.974 107.436 20.974 106.851C20.974 106.266 20.6366 105.927 20.1306 105.927ZM20.1306 107.398C19.9056 107.398 19.7744 107.191 19.7744 106.87C19.7744 106.549 19.9056 106.342 20.1306 106.342C20.3555 106.342 20.4867 106.53 20.4867 106.87C20.4867 107.21 20.3555 107.398 20.1306 107.398Z" fill="#A0A7A6"/>
<path d="M21.1055 106.361H21.5741V107.776H22.0614V106.361H22.53V105.964H21.1055V106.361Z" fill="#A0A7A6"/>
<path d="M23.0172 105.964L22.4736 107.776H22.961L23.0547 107.398H23.5608L23.6545 107.776H24.1605L23.617 105.964H23.0359H23.0172ZM23.1297 107.021L23.1671 106.889C23.2046 106.719 23.2609 106.493 23.2983 106.323C23.3358 106.512 23.3921 106.719 23.4295 106.889L23.467 107.021H23.1297Z" fill="#A0A7A6"/>
<path d="M24.7791 105.964H24.3105V107.776H25.4726V107.36H24.7791V105.964Z" fill="#A0A7A6"/>
<defs>
<linearGradient id="paint0_linear_619_6143" x1="52.3132" y1="22.1097" x2="49.2136" y2="17.9409" gradientUnits="userSpaceOnUse">
<stop stop-color="white"/>
<stop offset="0.24" stop-color="#F2F2F2"/>
<stop offset="0.66" stop-color="#B4B4B4"/>
<stop offset="1" stop-color="#808080"/>
</linearGradient>
<linearGradient id="paint1_linear_619_6143" x1="54.1687" y1="11.6397" x2="45.9849" y2="0.654259" gradientUnits="userSpaceOnUse">
<stop stop-color="white"/>
<stop offset="0.24" stop-color="#F2F2F2"/>
<stop offset="0.66" stop-color="#B4B4B4"/>
<stop offset="1" stop-color="#808080"/>
</linearGradient>
<linearGradient id="paint2_linear_619_6143" x1="27.178" y1="63.3863" x2="27.178" y2="89.4765" gradientUnits="userSpaceOnUse">
<stop stop-color="white"/>
<stop offset="0.24" stop-color="#F2F2F2"/>
<stop offset="0.66" stop-color="#B4B4B4"/>
<stop offset="1" stop-color="#808080"/>
</linearGradient>
<linearGradient id="paint3_linear_619_6143" x1="89.0689" y1="83.4586" x2="85.9881" y2="79.3084" gradientUnits="userSpaceOnUse">
<stop stop-color="white"/>
<stop offset="0.24" stop-color="#F2F2F2"/>
<stop offset="0.66" stop-color="#B4B4B4"/>
<stop offset="1" stop-color="#808080"/>
</linearGradient>
<linearGradient id="paint4_linear_619_6143" x1="87.4383" y1="50.3128" x2="74.8129" y2="33.3558" gradientUnits="userSpaceOnUse">
<stop stop-color="white"/>
<stop offset="0.24" stop-color="#F2F2F2"/>
<stop offset="0.66" stop-color="#B4B4B4"/>
<stop offset="1" stop-color="#808080"/>
</linearGradient>
<linearGradient id="paint5_linear_619_6143" x1="62.4906" y1="94.1173" x2="62.4906" y2="91.08" gradientUnits="userSpaceOnUse">
<stop stop-color="#808080"/>
<stop offset="0.34" stop-color="#B4B4B4"/>
<stop offset="0.76" stop-color="#F2F2F2"/>
<stop offset="1" stop-color="white"/>
</linearGradient>
<linearGradient id="paint6_linear_619_6143" x1="62.2847" y1="108.096" x2="62.2847" y2="96.3999" gradientUnits="userSpaceOnUse">
<stop stop-color="#808080"/>
<stop offset="0.34" stop-color="#B4B4B4"/>
<stop offset="0.76" stop-color="#F2F2F2"/>
<stop offset="1" stop-color="white"/>
</linearGradient>
<linearGradient id="paint7_linear_619_6143" x1="56.399" y1="143.091" x2="62.1502" y2="108.108" gradientUnits="userSpaceOnUse">
<stop stop-color="#808080"/>
<stop offset="0.34" stop-color="#B4B4B4"/>
<stop offset="0.76" stop-color="#F2F2F2"/>
<stop offset="1" stop-color="white"/>
</linearGradient>
<linearGradient id="paint8_linear_619_6143" x1="24.5166" y1="77.4218" x2="24.5546" y2="74.1016" gradientUnits="userSpaceOnUse">
<stop stop-color="#808080"/>
<stop offset="0.34" stop-color="#B4B4B4"/>
<stop offset="0.76" stop-color="#F2F2F2"/>
<stop offset="1" stop-color="white"/>
</linearGradient>
<linearGradient id="paint9_linear_619_6143" x1="34.1883" y1="108.209" x2="31.3921" y2="109.104" gradientUnits="userSpaceOnUse">
<stop stop-color="#B3B3B3"/>
<stop offset="0.02" stop-color="#B4B4B4"/>
<stop offset="0.76" stop-color="#F2F2F2"/>
<stop offset="1" stop-color="white"/>
</linearGradient>
<linearGradient id="paint10_linear_619_6143" x1="34.2258" y1="74.46" x2="31.7673" y2="75.2618" gradientUnits="userSpaceOnUse">
<stop stop-color="#B3B3B3"/>
<stop offset="0.02" stop-color="#B4B4B4"/>
<stop offset="0.76" stop-color="#F2F2F2"/>
<stop offset="1" stop-color="white"/>
</linearGradient>
</defs>
</svg>
